<?xml version="1.0" encoding="utf-8"?>
<!-- Generator: Adobe Illustrator 26.3.1, SVG Export Plug-In . SVG Version: 6.00 Build 0)  -->
<svg version="1.1" id="Layer_1" xmlns="http://www.w3.org/2000/svg" xmlns:xlink="http://www.w3.org/1999/xlink" x="0px" y="0px"
	 viewBox="0 0 1366 768" style="enable-background:new 0 0 1366 768;" xml:space="preserve">
<path d="M723.2,330.2v3.3h6.8v18.2h4v-18.2h6.8v-3.3H723.2z"/>
<path d="M640.8,351.7h4v-9.1h9.2v-3.3h-9.2v-5.8H655v-3.3h-14.1V351.7z"/>
<path d="M670.6,343.2c0.1-0.1,0.3-0.1,0.4-0.2c1.2-0.5,2-1.3,2.6-2.3c0.6-1,0.9-2.2,0.9-3.6c0-1.4-0.3-2.6-0.9-3.6
	c-0.6-1-1.5-1.8-2.6-2.4c-1.2-0.6-2.6-0.9-4.3-0.9h-8.3v21.5h4v-7.9h4.1l4.3,7.9h4.5L670.6,343.2z M670.1,339
	c-0.3,0.5-0.8,0.9-1.4,1.2c-0.6,0.3-1.4,0.4-2.4,0.4h-3.7v-7.1h3.7c1,0,1.8,0.1,2.4,0.4c0.6,0.3,1.1,0.7,1.4,1.2
	c0.3,0.5,0.5,1.2,0.5,2C670.5,337.9,670.4,338.5,670.1,339z"/>
<path d="M715.9,344.9h-0.2l-10.4-14.6h-3.6v21.5h4v-14.6h0.2l10.4,14.6h3.6v-21.5h-4V344.9z"/>
<path d="M696.7,335c-0.9-1.6-2.1-2.9-3.6-3.8c-1.5-0.9-3.3-1.3-5.2-1.3c-1.9,0-3.7,0.4-5.2,1.3c-1.5,0.9-2.7,2.1-3.6,3.8
	c-0.9,1.6-1.3,3.6-1.3,5.9c0,2.3,0.4,4.3,1.3,5.9c0.9,1.6,2.1,2.9,3.6,3.8c1.5,0.9,3.3,1.3,5.2,1.3c1.9,0,3.7-0.4,5.2-1.3
	c1.5-0.9,2.7-2.1,3.6-3.8c0.9-1.6,1.3-3.6,1.3-5.9C698,338.7,697.5,336.7,696.7,335z M693.2,345.1c-0.5,1.1-1.2,2-2.2,2.5
	c-0.9,0.6-2,0.9-3.2,0.9c-1.2,0-2.3-0.3-3.2-0.9c-0.9-0.6-1.6-1.4-2.2-2.5c-0.5-1.1-0.8-2.5-0.8-4.1c0-1.6,0.3-3,0.8-4.1
	c0.5-1.1,1.2-2,2.2-2.5c0.9-0.6,2-0.9,3.2-0.9c1.2,0,2.3,0.3,3.2,0.9c0.9,0.6,1.6,1.4,2.2,2.5c0.5,1.1,0.8,2.5,0.8,4.1
	C694,342.6,693.7,344,693.2,345.1z"/>
</svg>
