<svg xmlns="http://www.w3.org/2000/svg" xmlns:xlink="http://www.w3.org/1999/xlink" xml:space="preserve" style="enable-background:new 0 0 1366 768" viewBox="0 0 1366 768"><path d="M723.2 330.2v3.3h6.8v18.2h4v-18.2h6.8v-3.3h-17.6z"/><path d="M640.8 351.7h4v-9.1h9.2v-3.3h-9.2v-5.8H655v-3.3h-14.1v21.5z"/><path d="M670.6 343.2c.1-.1.3-.1.4-.2 1.2-.5 2-1.3 2.6-2.3.6-1 .9-2.2.9-3.6s-.3-2.6-.9-3.6c-.6-1-1.5-1.8-2.6-2.4-1.2-.6-2.6-.9-4.3-.9h-8.3v21.5h4v-7.9h4.1l4.3 7.9h4.5l-4.7-8.5zm-.5-4.2c-.3.5-.8.9-1.4 1.2-.6.3-1.4.4-2.4.4h-3.7v-7.1h3.7c1 0 1.8.1 2.4.4.6.3 1.1.7 1.4 1.2.3.5.5 1.2.5 2-.1.8-.2 1.4-.5 1.9z"/><path d="M715.9 344.9h-.2l-10.4-14.6h-3.6v21.5h4v-14.6h.2l10.4 14.6h3.6v-21.5h-4v14.6z"/><path d="M696.7 335c-.9-1.6-2.1-2.9-3.6-3.8-1.5-.9-3.3-1.3-5.2-1.3-1.9 0-3.7.4-5.2 1.3s-2.7 2.1-3.6 3.8c-.9 1.6-1.3 3.6-1.3 5.9 0 2.3.4 4.3 1.3 5.9.9 1.6 2.1 2.9 3.6 3.8 1.5.9 3.3 1.3 5.2 1.3 1.9 0 3.7-.4 5.2-1.3s2.7-2.1 3.6-3.8c.9-1.6 1.3-3.6 1.3-5.9 0-2.2-.5-4.2-1.3-5.9zm-3.5 10.1c-.5 1.1-1.2 2-2.2 2.5-.9.6-2 .9-3.2.9-1.2 0-2.3-.3-3.2-.9-.9-.6-1.6-1.4-2.2-2.5-.5-1.1-.8-2.5-.8-4.1 0-1.6.3-3 .8-4.1.5-1.1 1.2-2 2.2-2.5.9-.6 2-.9 3.2-.9 1.2 0 2.3.3 3.2.9.9.6 1.6 1.4 2.2 2.5.5 1.1.8 2.5.8 4.1 0 1.6-.3 3-.8 4.1z"/></svg>