<?xml version="1.0" encoding="utf-8"?>
<!-- Generator: Adobe Illustrator 26.3.1, SVG Export Plug-In . SVG Version: 6.00 Build 0)  -->
<svg version="1.1" id="Layer_2_00000006673566752872726920000009700072344301659571_"
	 xmlns="http://www.w3.org/2000/svg" xmlns:xlink="http://www.w3.org/1999/xlink" x="0px" y="0px" viewBox="0 0 149 155"
	 style="enable-background:new 0 0 149 155;" xml:space="preserve">
<style type="text/css">
	.st0{fill:#FFFFFF;}
	.st1{fill:#F15822;}
	.st2{fill:#010101;}
</style>
<g id="Layer_1-2">
	<path class="st0" d="M129.9,71.8c0.3,6.9-0.2,13.9-1.7,21.2c-1.4,7.2-3.8,13.9-7.1,19.8c-3.4,6.1-7.8,11.1-13.2,15.3
		c-5.4,4.2-18.6,7.3-26.4,8c-9.1,0.9-17.3,0-24.4-2.6C50,130.9,43.9,127,38.7,122s-9.2-11-12.2-17.9s-5-14.2-6-22
		c-0.8-5.9-0.8-11.7-0.2-17.7s2.1-11.6,4.3-17.2c3.6-8.7,7.6-11.7,14.1-16.7c6.6-5,13.6-8.1,21.3-9.4s21.8-1.5,29.8,0.8
		c7.9,2.3,14.9,3.4,21.3,9.3c5.6,5.2,11.1,10.4,13.9,17.5C128,55.7,129.6,63.4,129.9,71.8z"/>
	<path class="st1" d="M133.4,43.8c-3.2-8.1-8.1-12.7-14.4-18.6c-7.1-6.8-15.9-10.3-24.7-13S70.7,9.6,62.2,11s-16.4,5.1-23.8,10.9
		c-7.3,5.7-13,13.6-17,23.6c-2.5,6.4-3,9.3-3.7,16.1C16.9,68.5,17,75.2,17.9,82c1.1,9,3.3,17.5,6.7,25.4s7.9,14.8,13.6,20.6
		c5.7,5.8,12.5,10.3,20.5,13.3c7.9,3,17,4.1,27.2,3.1c8.8-0.8,22.4-4.3,28.4-9.1c6.1-4.8,11-10.7,14.7-17.6c3.7-7,6.3-14.6,7.9-22.9
		c1.6-8.3,2.2-16.5,1.8-24.4C138.4,60.8,136.6,51.9,133.4,43.8z M130.5,71.2c0.3,6.8-0.2,13.7-1.6,20.9c-1.3,7.1-3.6,13.7-6.8,19.6
		c-3.2,6-7.4,11-12.6,15.1s-17.7,7.2-25.2,7.9c-8.7,0.9-16.5,0-23.3-2.6c-6.8-2.6-12.6-6.4-17.5-11.4s-8.8-10.9-11.6-17.7
		c-2.9-6.8-4.8-14-5.7-21.7c-0.8-5.8-0.8-11.6-0.2-17.5s2-11.5,4.1-17c3.4-8.6,7.2-11.6,13.4-16.5c6.3-4.9,13-8,20.3-9.3
		c7.3-1.3,20.8-1.5,28.4,0.8c7.5,2.3,14.2,3.4,20.3,9.2c5.3,5.1,10.6,10.3,13.3,17.3C128.7,55.2,130.2,62.8,130.5,71.2z"/>
	<path class="st2" d="M97.5,60.5c0.9,2.2,1.4,4.4,1.6,6.6s0,4.4-0.4,6.7c-0.4,2.2-1,4.2-1.8,6.3c-0.8,2-1.9,3.9-3.3,5.7
		c-1,1.2-2,2.2-3,3.2c-1.1,1-2.2,1.9-3.4,2.6c-1.2,0.7-2.5,1.3-3.8,1.7c-1.3,0.4-2.7,0.6-4.2,0.5c-2.1-0.1-4.2-0.5-6.1-1
		c-2-0.5-3.9-1.4-5.7-2.5c-1.9-1.1-3.2-2.7-3.9-4.6c-0.2-0.5-0.2-1.1-0.1-1.6c0.1-0.6,0.4-1.2,0.7-1.9c0.3-0.7,0.7-1.3,1.2-2
		s0.9-1.4,1.4-2c1.4-2,2.5-3.8,3.4-5.5c0.8-1.7,1.4-3.4,1.8-5.2c0.4-1.7,0.6-3.5,0.6-5.2c0-1.8-0.1-3.7-0.2-5.9c0-0.5,0-1.1-0.1-1.6
		s0-1,0.1-1.5c0.1-0.8,0.4-1.6,0.9-2.2c0.4-0.6,1-1.1,1.6-1.5c0.6-0.3,1.4-0.5,2.2-0.6s1.7,0,2.6,0.3c1.8,0.5,3.6,1.1,5.4,1.6
		c1.8,0.6,3.6,1.3,5.2,2.1s3.1,1.9,4.5,3.1C95.7,57.2,96.7,58.7,97.5,60.5L97.5,60.5z M88,79.6c0.6-0.9,1.1-1.9,1.5-3
		s0.6-2.2,0.8-3.3c0.1-1.1,0.2-2.2,0.1-3.4c-0.1-1.1-0.3-2.2-0.5-3.2c-0.6-2-1.6-3.6-3-4.9c-0.6-0.5-1.2-0.9-1.7-0.9
		c-0.5-0.1-1,0-1.4,0.3s-0.7,0.7-1,1.2c-0.2,0.5-0.3,1.1-0.3,1.8c-0.1,1.3-0.2,2.4-0.5,3.5c-0.2,1.1-0.5,2.2-0.8,3.2s-0.7,2-1.1,3.1
		c-0.4,1-0.8,2.1-1.3,3.2c-0.6,1.4-0.8,2.5-0.7,3.4c0.1,0.9,0.4,1.5,0.9,2s1.2,0.7,2,0.8c0.8,0.1,1.7,0,2.5-0.3
		c0.9-0.3,1.7-0.7,2.5-1.3C86.8,81,87.4,80.3,88,79.6z"/>
	<path class="st2" d="M127.2,47c-3.2-8.1-8.1-12.7-14.4-18.6c-7.1-6.8-15.9-10.3-24.7-13S64.5,12.8,56,14.3s-16.4,5.1-23.8,10.8
		c-7.3,5.7-13,13.6-17,23.6c-2.5,6.4-3,9.3-3.7,16.1c-0.8,6.9-0.7,13.7,0.2,20.4c1.1,9,3.3,17.5,6.7,25.4s7.9,14.8,13.6,20.6
		c5.7,5.8,12.5,10.3,20.5,13.3c7.9,3,17,4.1,27.2,3.1c8.8-0.8,22.4-4.3,28.4-9.1c6.1-4.8,11-10.7,14.7-17.6c3.7-7,6.3-14.6,7.9-22.9
		c1.6-8.3,2.2-16.5,1.8-24.4C132.1,63.9,130.4,55,127.2,47z M124.3,74.3c0.3,6.8-0.2,13.7-1.6,20.9c-1.3,7.1-3.6,13.7-6.8,19.6
		c-3.2,6-7.4,11-12.6,15.1c-5.2,4.1-17.7,7.2-25.2,7.9c-8.7,0.9-16.5,0-23.3-2.6c-6.8-2.6-12.6-6.4-17.5-11.4s-8.8-10.9-11.6-17.7
		c-2.9-6.8-4.8-14-5.7-21.7c-0.8-5.8-0.8-11.6-0.2-17.5s2-11.5,4.1-17c3.4-8.6,7.2-11.6,13.4-16.5c6.3-4.9,13-8,20.3-9.3
		c7.3-1.3,20.8-1.5,28.4,0.8c7.5,2.3,14.2,3.4,20.3,9.2c5.3,5.1,10.6,10.3,13.3,17.3C122.4,58.4,124,66,124.3,74.3z"/>
	<path class="st2" d="M123.1,81.9c1,1.3,1.4,2.8,1.2,4.4c-0.2,1.6-1,3-2.3,4c-0.9,0.7-1.9,1-3.1,1.1c-1.5,1.3-19.7,19.3-21.2,20.5
		c-1.5,1.3,0.4-0.2-1.9,1.3s-4.6,2.8-6.7,3.9c-2.2,1.1-4.5,1.9-7,2.4c-2.5,0.6-4.8,0.7-6.9,0.3c-3.5-0.6-6.4-2.4-8.6-5.3
		c-0.7-0.9-1.3-1.9-1.9-3.1c-0.7-1.5-0.8-3-0.2-4.6c0.6-1.5,1.6-2.7,3.1-3.4c1.5-0.7,3-0.8,4.6-0.2c1.5,0.6,2.7,1.6,3.4,3.1
		c0.5,1,1.1,1.6,1.8,1.7c1.9,0.3,4.7-0.5,8.4-2.6s20.1-18.4,23.7-21.5l-1.4-1.9c-1-1.3-1.4-2.8-1.2-4.4c0.2-1.6,1-3,2.3-4
		c0.6-0.5,1.4-0.8,2.1-1c0.8-0.2,1.5-0.3,2.3-0.2c0.7,0.1,1.5,0.3,2.2,0.7s1.3,0.9,1.8,1.6C117.6,74.7,123.1,82,123.1,81.9z"/>
	<g>
		<path class="st2" d="M32.9,85.2c-0.5,1.2-1,2.3-1.6,3.5c-0.8,1.7-1.8,2.7-3,3.3c-1.2,0.5-2.4,0.7-3.5,0.4c-1.1-0.3-2.1-0.8-3-1.7
			c-0.8-0.9-1.3-2-1.4-3.2c-0.1-0.6,0-1.1,0.1-1.7c0.2-0.6,0.4-1.1,0.6-1.6l0.9-1.5c0.3-0.5,0.7-0.9,1-1.3c1.3-1.9,2.6-3.5,3.9-5.5"
			/>
		<path class="st2" d="M60.2,55c0.9,2.2,1.4,4.4,1.6,6.6s0,4.4-0.4,6.7c-0.4,2.2-1,4.2-1.8,6.3c-0.8,2-1.9,3.9-3.3,5.7
			c-1,1.2-2,2.2-3,3.2c-1.1,1-2.2,1.9-3.4,2.6s-2.5,1.3-3.8,1.7c-1.3,0.4-2.7,0.6-4.2,0.5c-2.1-0.1-4.2-0.5-6.1-1
			c-2-0.5-3.9-1.4-5.7-2.5c-1.9-1.1-3.2-2.7-3.9-4.6c-0.2-0.5-0.2-1.1-0.1-1.6c0.1-0.6,0.4-1.2,0.7-1.9c0.3-0.7,0.7-1.3,1.2-2
			s0.9-1.4,1.4-2c1.4-2,2.5-3.8,3.4-5.5c0.8-1.7,1.4-3.4,1.8-5.2c0.4-1.7,0.6-3.5,0.6-5.2c0-1.8-0.1-3.7-0.2-5.9
			c0-0.5,0-1.1-0.1-1.6c-0.1-0.5,0-1,0.1-1.5c0.1-0.8,0.4-1.6,0.9-2.2c0.4-0.6,1-1.1,1.6-1.5c0.6-0.3,1.4-0.5,2.2-0.6
			c0.8-0.1,1.7,0,2.6,0.3c1.8,0.5,3.6,1.1,5.4,1.6c1.8,0.6,3.6,1.3,5.2,2.1c1.6,0.8,3.1,1.9,4.5,3.1C58.4,51.7,59.4,53.2,60.2,55
			L60.2,55z M50.7,73.9c0.6-0.9,1.1-1.9,1.5-3s0.6-2.2,0.8-3.3c0.1-1.1,0.2-2.2,0.1-3.4C53,63.1,52.8,62,52.6,61
			c-0.6-2-1.6-3.6-3-4.9c-0.6-0.5-1.2-0.9-1.7-0.9c-0.5-0.1-1,0-1.4,0.3s-0.7,0.7-1,1.2c-0.2,0.5-0.3,1.1-0.3,1.8
			c-0.1,1.3-0.2,2.4-0.5,3.5c-0.2,1.1-0.5,2.2-0.8,3.2s-0.7,2-1.1,3.1c-0.4,1-0.8,2.1-1.3,3.2c-0.6,1.4-0.8,2.5-0.7,3.4
			c0.1,0.9,0.4,1.5,0.9,2s1.2,0.7,2,0.8c0.8,0.1,1.7,0,2.5-0.3c0.9-0.3,1.7-0.7,2.5-1.3C49.5,75.5,50.2,74.8,50.7,73.9L50.7,73.9z"
			/>
	</g>
</g>
</svg>
