<?xml version="1.0" encoding="utf-8"?>
<!-- Generator: Adobe Illustrator 26.3.1, SVG Export Plug-In . SVG Version: 6.00 Build 0)  -->
<svg version="1.1" id="Layer_1" xmlns="http://www.w3.org/2000/svg" xmlns:xlink="http://www.w3.org/1999/xlink" x="0px" y="0px"
	 viewBox="0 0 544 86.5" style="enable-background:new 0 0 544 86.5;" xml:space="preserve">
<style type="text/css">
	.st0{fill:none;stroke:#FF6300;stroke-miterlimit:10;}
</style>
<path class="st0" d="M13.6,72.5v-66h63.2v6.9h-55v22H74v6.9H21.8v30.2H13.6z M114,73.4c-5.5,0-10.2-0.4-14-1.1
	c-3.8-0.8-7-2.1-9.4-3.9c-2.4-1.9-4.2-4.4-5.2-7.5c-1.1-3.1-1.6-7-1.6-11.8c0-5.4,0.5-9.9,1.6-13.4s2.8-6.4,5.2-8.4
	c2.4-2.1,5.5-3.6,9.4-4.4c3.8-0.8,8.5-1.2,14-1.2c3.9,0,7.3,0.3,10.2,0.9s5.3,1.4,7.4,2.5c2,1.1,3.7,2.4,5,4c1.3,1.5,2.3,3.2,3,4.9
	c0.7,1.7,1.2,3.7,1.5,6s0.4,4.7,0.4,7.3l-0.7,2.8H92c0,3.7,0.4,6.7,1.1,9.1s2,4.1,3.7,5.2c1.7,1.1,4,1.8,6.8,2.1
	c2.8,0.3,6.3,0.4,10.4,0.4c3.8,0,6.9-0.1,9.4-0.3c2.5-0.2,4.4-0.6,5.9-1.2s2.5-1.4,3.1-2.4c0.6-1,0.9-2.3,0.9-4h8.2
	c0,2.7-0.5,4.9-1.4,6.8c-0.9,1.9-2.5,3.4-4.6,4.6s-5,2-8.5,2.5C123.4,73.1,119.1,73.4,114,73.4z M114,28.5c-2.8,0-5.2,0.1-7.4,0.2
	s-4.1,0.4-5.7,0.8c-1.6,0.4-3,0.9-4.1,1.7c-1.1,0.7-2.1,1.6-2.8,2.6s-1.2,2.4-1.5,4.2c-0.3,1.8-0.5,3.9-0.5,6.5h41.2
	c0-3.4-0.4-6-1.1-7.9c-0.7-1.9-1.8-3.5-3.4-4.7c-1.5-1.2-3.5-2.1-6-2.5C120.3,28.7,117.4,28.5,114,28.5z M201.7,65.7
	c-0.1,0.3-0.7,1.2-1.9,2.6c-0.9,1-2,1.9-3.4,2.7c-1.4,0.8-3.3,1.4-5.7,1.8s-5.5,0.7-9.4,0.7c-5.2,0-9.6-0.3-13.3-0.8s-6.7-1.3-9-2.4
	s-4-2.5-5.1-4.2s-1.6-3.8-1.6-6.1c0-2.5,0.3-4.6,0.9-6.3c0.6-1.7,1.4-3.2,2.6-4.4c1.1-1.2,2.5-2.1,4.1-2.8c1.6-0.7,3.4-1.2,5.5-1.5
	c2-0.3,4.3-0.6,6.7-0.6s5-0.1,7.8-0.1c3.9,0,7.2,0.2,9.8,0.5s4.8,0.7,6.5,1.2s2.9,1,3.8,1.6c0.9,0.6,1.5,1.1,1.8,1.6
	c0-3.2-0.1-5.9-0.4-8.2c-0.3-2.3-0.7-4.2-1.3-5.7s-1.4-2.7-2.4-3.6c-1-0.9-2.2-1.6-3.6-2c-1.4-0.5-3.1-0.8-5-0.9s-4.1-0.2-6.5-0.2
	c-3.8,0-6.9,0.1-9.4,0.3c-2.5,0.2-4.5,0.6-5.9,1.1c-1.5,0.5-2.5,1.3-3.1,2.3c-0.6,1-0.9,2.2-0.9,3.8H155c0-2.6,0.5-4.8,1.4-6.6
	c0.9-1.8,2.5-3.3,4.6-4.4c2.2-1.1,5-2,8.5-2.5s7.9-0.8,13-0.8c5,0,9.3,0.4,12.8,1.2c3.5,0.8,6.3,2.3,8.5,4.4s3.7,4.9,4.7,8.4
	s1.4,8,1.4,13.4v23.4h-8.2V65.7z M182.6,66.6c3.6,0,6.7-0.2,9.1-0.5c2.4-0.3,4.4-0.8,5.9-1.5c1.5-0.7,2.5-1.5,3.2-2.5
	c0.6-1,0.9-2.2,0.9-3.6s-0.4-2.5-1.1-3.5s-1.9-1.7-3.7-2.3c-1.7-0.6-4-1-6.8-1.3s-6.3-0.4-10.4-0.4s-7.5,0.1-10,0.2s-4.5,0.5-5.9,1
	s-2.3,1.3-2.8,2.2c-0.5,1-0.7,2.3-0.7,4s0.3,3.1,0.8,4.1c0.5,1.1,1.5,1.9,3.1,2.5s3.8,1,6.7,1.2C173.9,66.5,177.8,66.6,182.6,66.6z
	 M269.1,50.5c0,4.2-0.3,7.7-1,10.5s-1.8,5.1-3.5,6.8c-1.6,1.7-3.7,2.9-6.4,3.6c-2.6,0.7-5.9,1.1-9.8,1.1c-3.8,0-6.9-0.3-9.5-0.9
	c-2.5-0.6-4.6-1.5-6.2-2.9s-2.7-3.2-3.4-5.5c-0.7-2.3-1-5.1-1-8.6V29.8h-10.2v-6.9h10.2V9.5h8.2v13.4h31.1v6.9h-31.1v24.8
	c0,2.7,0.2,4.9,0.6,6.3c0.4,1.5,1.1,2.6,2,3.3c0.9,0.7,2.1,1.1,3.6,1.2s3.3,0.2,5.5,0.2c1.7,0,3.3,0,4.6-0.1
	c1.4-0.1,2.5-0.2,3.6-0.5c1-0.3,1.9-0.8,2.6-1.4c0.7-0.6,1.3-1.5,1.7-2.6c0.4-1.1,0.8-2.5,1-4.2s0.3-3.8,0.3-6.3H269.1z M288.4,23
	v27.2c0,3,0.2,5.6,0.7,7.7s1.4,3.8,2.8,5c1.4,1.3,3.3,2.2,5.9,2.8c2.5,0.6,5.8,0.9,10,0.9c4.5,0,8.1-0.3,11-1s5.1-1.6,6.7-2.8
	c1.6-1.2,2.8-2.6,3.4-4.3c0.6-1.7,0.9-3.5,0.9-5.6v-30h8.2v49.5h-8.2v-8.7c-0.4,0.9-1.1,2-2,3.1s-2.4,2.2-4.3,3.1
	c-1.9,1-4.3,1.8-7.3,2.4c-3,0.7-6.7,1-11.2,1c-3.7,0-6.9-0.2-9.5-0.7c-2.6-0.4-4.9-1.1-6.7-2c-1.8-0.9-3.3-2-4.4-3.2
	c-1.1-1.3-2-2.8-2.6-4.5c-0.6-1.7-1-3.6-1.2-5.7s-0.3-4.4-0.3-6.9V22.8h8.1V23z M391.5,39.1c0-2.1-0.2-3.8-0.5-5.1
	c-0.3-1.4-1-2.4-2.1-3.3s-2.8-1.4-5-1.7c-2.2-0.3-5.2-0.5-9-0.5c-3.7,0-6.7,0.3-9,1s-4.1,1.6-5.5,2.7c-1.3,1.2-2.2,2.6-2.7,4.2
	s-0.7,3.5-0.7,5.5v30.6h-8.2V23h8.2v7.9c0.3-0.9,0.8-1.9,1.6-2.9s1.9-2.1,3.5-3s3.6-1.7,6.1-2.3c2.5-0.6,5.6-0.9,9.4-0.9
	c4.3,0,7.8,0.4,10.5,1.1c2.7,0.8,4.8,1.9,6.3,3.4s2.5,3.3,3.1,5.5c0.5,2.2,0.8,4.7,0.8,7.5h-6.8V39.1z M432.8,73.4
	c-5.5,0-10.2-0.4-14-1.1c-3.8-0.8-7-2.1-9.4-3.9c-2.4-1.9-4.2-4.4-5.2-7.5c-1.1-3.1-1.6-7-1.6-11.8c0-5.4,0.5-9.9,1.6-13.4
	s2.8-6.4,5.2-8.4c2.4-2.1,5.5-3.6,9.4-4.4c3.8-0.8,8.5-1.2,14-1.2c3.9,0,7.3,0.3,10.2,0.9c2.9,0.6,5.3,1.4,7.4,2.5
	c2,1.1,3.7,2.4,5,4c1.3,1.5,2.3,3.2,3,4.9c0.7,1.7,1.2,3.7,1.5,6s0.4,4.7,0.4,7.3l-0.7,2.8h-48.8c0,3.7,0.4,6.7,1.1,9.1
	s2,4.1,3.7,5.2c1.7,1.1,4,1.8,6.8,2.1c2.8,0.3,6.3,0.4,10.4,0.4c3.8,0,6.9-0.1,9.4-0.3c2.5-0.2,4.4-0.6,5.9-1.2s2.5-1.4,3.1-2.4
	c0.6-1,0.9-2.3,0.9-4h8.2c0,2.7-0.5,4.9-1.4,6.8c-0.9,1.9-2.5,3.4-4.6,4.6s-5,2-8.5,2.5C442.3,73.1,437.9,73.4,432.8,73.4z
	 M432.8,28.5c-2.8,0-5.2,0.1-7.4,0.2c-2.2,0.1-4.1,0.4-5.7,0.8s-3,0.9-4.1,1.7c-1.1,0.7-2.1,1.6-2.8,2.6c-0.7,1-1.2,2.4-1.5,4.2
	c-0.3,1.8-0.5,3.9-0.5,6.5H452c0-3.4-0.4-6-1.1-7.9s-1.8-3.5-3.4-4.7c-1.5-1.2-3.5-2.1-6-2.5C439.2,28.7,436.2,28.5,432.8,28.5z
	 M500.2,73.4c-5.5,0-10.2-0.4-14-1.2c-3.8-0.8-7-2.2-9.4-4.2s-4.2-4.6-5.2-7.9c-1.1-3.3-1.6-7.5-1.6-12.5c0-5.1,0.5-9.3,1.6-12.7
	c1.1-3.4,2.8-6,5.2-8c2.4-2,5.5-3.3,9.4-4.1c3.8-0.8,8.5-1.2,14-1.2c3.9,0,7.2,0.2,9.8,0.6c2.6,0.4,4.8,0.9,6.5,1.5s3,1.3,3.8,2
	c0.9,0.7,1.5,1.4,1.9,2V6.6h8.2v66h-8.2v-7.8l-2.1,2.6c-1.2,1.2-2.5,2.2-4,3s-3.5,1.5-6.1,2.1C507.3,73.1,504.1,73.4,500.2,73.4z
	 M500.2,66.5c2.8,0,5.2-0.1,7.3-0.2s4-0.4,5.7-0.8c1.6-0.4,3-1.1,4.1-1.9c1.1-0.8,2.1-1.9,2.8-3.3s1.2-3.1,1.6-5.2
	c0.3-2.1,0.5-4.5,0.5-7.4c0-3-0.2-5.6-0.5-7.7s-0.9-3.9-1.6-5.3c-0.7-1.4-1.6-2.6-2.8-3.4c-1.1-0.8-2.5-1.5-4.1-1.9
	c-1.6-0.4-3.5-0.7-5.7-0.8c-2.1-0.1-4.6-0.2-7.3-0.2c-3.2,0-6,0.1-8.3,0.3c-2.3,0.2-4.3,0.6-6,1.1c-1.6,0.5-3,1.2-4,2.1
	c-1,0.9-1.8,2.1-2.4,3.5c-0.6,1.4-0.9,3.1-1.1,5.1c-0.2,2-0.3,4.3-0.3,7s0.1,5,0.3,6.9c0.2,2,0.6,3.7,1.1,5.1s1.3,2.6,2.4,3.5
	c1,0.9,2.3,1.6,4,2.1c1.6,0.5,3.6,0.9,6,1.1C494.2,66.4,497,66.5,500.2,66.5z"/>
</svg>
