<?xml version="1.0" encoding="UTF-8"?><svg id="Layer_2" xmlns="http://www.w3.org/2000/svg" viewBox="0 0 121.59 134.8"><g id="Layer_1-2"><path d="M86.53,47.3c.88,2.18,1.4,4.37,1.55,6.58,.16,2.2,.03,4.44-.37,6.72-.43,2.16-1.04,4.25-1.81,6.27-.77,2.02-1.87,3.91-3.3,5.68-.96,1.16-1.98,2.24-3.05,3.24-1.07,1-2.21,1.85-3.41,2.56-1.21,.71-2.47,1.26-3.8,1.65-1.33,.39-2.74,.56-4.23,.51-2.12-.13-4.16-.45-6.12-.98-1.96-.53-3.86-1.36-5.7-2.48-1.92-1.12-3.22-2.66-3.92-4.63-.19-.51-.21-1.06-.08-1.65,.14-.59,.36-1.22,.67-1.88,.31-.66,.69-1.33,1.15-2.01,.46-.68,.94-1.36,1.43-2.02,1.42-1.95,2.54-3.8,3.36-5.53,.81-1.73,1.4-3.45,1.77-5.15,.36-1.7,.55-3.45,.56-5.25,.01-1.79-.07-3.75-.24-5.86,0-.55-.02-1.07-.08-1.57-.06-.5-.04-1,.07-1.52,.15-.83,.44-1.56,.88-2.19,.44-.63,.98-1.12,1.62-1.46,.64-.34,1.36-.55,2.17-.61,.81-.06,1.67,.03,2.57,.28,1.76,.51,3.56,1.05,5.4,1.61,1.84,.56,3.58,1.26,5.23,2.1,1.65,.84,3.13,1.87,4.46,3.09,1.33,1.22,2.39,2.73,3.19,4.51Zm-9.52,18.97c.62-.92,1.12-1.92,1.5-2.99s.64-2.18,.78-3.3c.14-1.12,.17-2.24,.09-3.35-.08-1.11-.26-2.17-.52-3.18-.56-1.96-1.57-3.6-3.04-4.93-.61-.55-1.19-.86-1.73-.94-.54-.08-1.01,0-1.42,.27-.4,.26-.73,.65-.96,1.17-.24,.52-.35,1.11-.33,1.78-.08,1.26-.23,2.43-.45,3.53-.22,1.1-.5,2.15-.82,3.18-.33,1.02-.69,2.05-1.09,3.08-.4,1.03-.82,2.11-1.26,3.24-.56,1.38-.8,2.51-.7,3.38,.09,.88,.39,1.54,.89,1.99s1.16,.71,1.98,.78c.82,.07,1.66-.03,2.52-.29,.86-.26,1.7-.69,2.52-1.28,.82-.59,1.5-1.3,2.05-2.14Z"/><path d="M116.17,33.68c-3.21-8.12-8.14-12.66-14.38-18.6-7.07-6.77-15.91-10.26-24.69-12.95C68.3-.56,53.51-.44,44.99,1.05c-8.53,1.49-16.45,5.09-23.75,10.81-7.31,5.72-12.97,13.59-16.98,23.62-2.48,6.38-2.99,9.28-3.74,16.14-.75,6.87-.68,13.68,.22,20.44,1.08,9,3.3,17.46,6.66,25.37,3.37,7.92,7.9,14.8,13.6,20.63,5.7,5.83,12.52,10.27,20.46,13.31,7.94,3.04,17.01,4.06,27.2,3.06,8.79-.81,22.36-4.33,28.44-9.12,6.07-4.78,10.96-10.65,14.66-17.62,3.7-6.96,6.34-14.61,7.9-22.94,1.56-8.34,2.18-16.46,1.84-24.37-.34-9.68-2.11-18.59-5.33-26.71Zm-2.9,27.38c.29,6.77-.24,13.73-1.57,20.86-1.34,7.14-3.59,13.69-6.76,19.64-3.17,5.96-7.36,10.99-12.55,15.08-5.2,4.1-17.7,7.22-25.23,7.91-8.73,.86-16.49-.02-23.29-2.62-6.8-2.6-12.64-6.4-17.52-11.39-4.88-4.99-8.76-10.88-11.64-17.66-2.88-6.78-4.78-14.02-5.7-21.72-.77-5.79-.83-11.62-.19-17.5,.64-5.88,2.02-11.55,4.14-17.01,3.43-8.59,7.18-11.6,13.44-16.49,6.26-4.89,13.04-7.98,20.34-9.26,7.3-1.27,20.85-1.48,28.37,.82,7.52,2.31,14.22,3.41,20.28,9.21,5.33,5.1,10.59,10.32,13.34,17.27,2.75,6.95,4.27,14.58,4.56,22.87Z"/><path d="M112.12,68.71c1,1.31,1.39,2.78,1.16,4.42-.23,1.64-1,2.96-2.33,3.97-.88,.67-1.9,1.05-3.07,1.14-1.46,1.32-19.65,19.27-21.19,20.52-1.54,1.25,.44-.2-1.87,1.32-2.32,1.53-4.56,2.82-6.71,3.87-2.15,1.05-4.47,1.86-6.96,2.43-2.49,.57-4.79,.66-6.89,.3-3.53-.62-6.39-2.37-8.59-5.27-.69-.91-1.31-1.93-1.85-3.06-.7-1.49-.77-3-.21-4.55,.56-1.55,1.59-2.67,3.09-3.39,1.49-.71,3.01-.79,4.56-.24,1.54,.55,2.67,1.57,3.37,3.06,.5,1,1.08,1.57,1.77,1.69,1.92,.34,4.72-.54,8.4-2.64,3.68-2.11,20.09-18.52,23.68-21.62l-1.42-1.87c-1-1.31-1.38-2.79-1.16-4.43,.23-1.64,1-2.96,2.33-3.97,.65-.49,1.36-.83,2.15-1.04,.78-.2,1.55-.25,2.3-.15,.74,.1,1.47,.35,2.17,.74,.7,.39,1.3,.91,1.78,1.55l5.5,7.22Z"/><g><path d="M21.87,71.91c-.5,1.17-1.03,2.35-1.58,3.54-.81,1.65-1.82,2.74-3.03,3.27-1.21,.52-2.39,.66-3.54,.39s-2.14-.84-2.97-1.74c-.83-.89-1.3-1.96-1.41-3.18-.06-.56-.02-1.12,.14-1.67,.16-.55,.37-1.09,.65-1.61,.27-.52,.58-1.03,.92-1.51,.34-.48,.69-.93,1.03-1.34,1.35-1.88,2.58-3.52,3.88-5.45"/><path d="M49.24,41.76c.88,2.18,1.4,4.37,1.55,6.58,.16,2.2,.03,4.44-.37,6.72-.43,2.16-1.04,4.25-1.81,6.27-.77,2.02-1.87,3.91-3.3,5.68-.96,1.16-1.98,2.24-3.05,3.24-1.07,1-2.21,1.85-3.41,2.56-1.21,.71-2.47,1.26-3.8,1.65-1.33,.39-2.74,.56-4.23,.51-2.12-.13-4.16-.45-6.12-.98-1.96-.53-3.86-1.36-5.7-2.48-1.92-1.12-3.22-2.66-3.92-4.63-.19-.51-.21-1.06-.08-1.65,.14-.59,.36-1.22,.67-1.88,.31-.66,.69-1.33,1.15-2.01,.46-.68,.94-1.36,1.43-2.02,1.42-1.95,2.54-3.8,3.36-5.53,.81-1.73,1.4-3.45,1.77-5.15,.36-1.7,.55-3.45,.56-5.25,.01-1.79-.07-3.75-.24-5.86,0-.55-.02-1.07-.08-1.57-.06-.5-.04-1,.07-1.52,.15-.83,.44-1.56,.88-2.19,.44-.63,.98-1.12,1.62-1.46,.64-.34,1.36-.55,2.17-.61,.81-.06,1.67,.03,2.57,.28,1.76,.51,3.56,1.05,5.4,1.61,1.84,.56,3.58,1.26,5.23,2.1,1.65,.84,3.13,1.87,4.46,3.09,1.33,1.22,2.39,2.73,3.19,4.51Zm-9.52,18.97c.62-.92,1.12-1.92,1.5-2.99s.64-2.18,.78-3.3c.14-1.12,.17-2.24,.09-3.35-.08-1.11-.26-2.17-.52-3.18-.56-1.96-1.57-3.6-3.04-4.93-.61-.55-1.19-.86-1.73-.94-.54-.08-1.01,0-1.42,.27-.4,.26-.73,.65-.96,1.17-.24,.52-.35,1.11-.33,1.78-.08,1.26-.23,2.43-.45,3.53-.22,1.1-.5,2.15-.82,3.18-.33,1.02-.69,2.05-1.09,3.08-.4,1.03-.82,2.11-1.26,3.24-.56,1.38-.8,2.51-.7,3.38,.09,.88,.39,1.54,.89,1.99s1.16,.71,1.98,.78c.82,.07,1.66-.03,2.52-.29,.86-.26,1.7-.69,2.52-1.28,.82-.59,1.5-1.3,2.05-2.14Z"/></g></g></svg>