<?xml version="1.0" encoding="UTF-8"?><svg id="Layer_1" xmlns="http://www.w3.org/2000/svg" viewBox="0 0 100 100"><defs><style>.cls-1{fill:#fbf8f3;}</style></defs><polygon points="24.73 48.68 10.04 48.68 10.04 41.67 8.03 41.67 8.03 57.7 10.04 57.7 10.04 50.35 24.73 50.35 24.73 57.7 26.74 57.7 26.74 41.67 24.73 41.67 24.73 48.68"/><polygon points="30.08 43.34 38.09 43.34 38.09 57.7 40.1 57.7 40.1 43.34 48.11 43.34 48.11 41.67 30.08 41.67 30.08 43.34"/><polygon points="82.68 56.03 82.68 41.67 80.68 41.67 80.68 57.7 95.38 57.7 95.38 56.03 82.68 56.03"/><path class="cls-1" d="M50,0C22.39,0,0,22.39,0,50s22.39,50,50,50,50-22.39,50-50S77.61,0,50,0ZM26.74,57.7h-2v-7.35H10.04v7.35h-2v-16.03h2v7.01h14.7v-7.01h2v16.03Zm21.38-14.36h-8.02v14.36h-2v-14.36h-8.02v-1.67h18.04v1.67Zm28.56,14.36h-2v-14.48l-9.52,14.48h-2.03l-9.67-14.7v14.7h-2v-16.03h3.22l9.34,14.03,9.35-14.03h3.31v16.03Zm4.01,0v-16.03h2v14.36h12.69v1.67h-14.7Z"/><polygon points="64.02 55.7 54.68 41.67 51.45 41.67 51.45 57.7 53.46 57.7 53.46 43 63.12 57.7 65.15 57.7 74.67 43.22 74.67 57.7 76.67 57.7 76.67 41.67 73.37 41.67 64.02 55.7"/></svg>