<?xml version="1.0" encoding="utf-8"?>
<!-- Generator: Adobe Illustrator 26.3.1, SVG Export Plug-In . SVG Version: 6.00 Build 0)  -->
<svg version="1.1" id="Layer_1" xmlns="http://www.w3.org/2000/svg" xmlns:xlink="http://www.w3.org/1999/xlink" x="0px" y="0px"
	 viewBox="0 0 612 792" style="enable-background:new 0 0 612 792;" xml:space="preserve">
<style type="text/css">
	.st0{fill:#010101;}
	.st1{fill:#F15822;}
</style>
<path class="st0" d="M328.3,377c0.9,2.2,1.4,4.4,1.6,6.6s0,4.4-0.4,6.7c-0.4,2.2-1,4.2-1.8,6.3c-0.8,2-1.9,3.9-3.3,5.7
	c-1,1.2-2,2.2-3,3.2c-1.1,1-2.2,1.9-3.4,2.6c-1.2,0.7-2.5,1.3-3.8,1.7c-1.3,0.4-2.7,0.6-4.2,0.5c-2.1-0.1-4.2-0.5-6.1-1
	c-2-0.5-3.9-1.4-5.7-2.5c-1.9-1.1-3.2-2.7-3.9-4.6c-0.2-0.5-0.2-1.1-0.1-1.6c0.1-0.6,0.4-1.2,0.7-1.9c0.3-0.7,0.7-1.3,1.2-2
	s0.9-1.4,1.4-2c1.4-2,2.5-3.8,3.4-5.5c0.8-1.7,1.4-3.4,1.8-5.2c0.4-1.7,0.6-3.5,0.6-5.2c0-1.8-0.1-3.7-0.2-5.9c0-0.5,0-1.1-0.1-1.6
	s0-1,0.1-1.5c0.1-0.8,0.4-1.6,0.9-2.2c0.4-0.6,1-1.1,1.6-1.5c0.6-0.3,1.4-0.5,2.2-0.6c0.8-0.1,1.7,0,2.6,0.3
	c1.8,0.5,3.6,1.1,5.4,1.6c1.8,0.6,3.6,1.3,5.2,2.1c1.6,0.8,3.1,1.9,4.5,3.1C326.5,373.7,327.5,375.2,328.3,377z M318.8,396
	c0.6-0.9,1.1-1.9,1.5-3s0.6-2.2,0.8-3.3c0.1-1.1,0.2-2.2,0.1-3.4c-0.1-1.1-0.3-2.2-0.5-3.2c-0.6-2-1.6-3.6-3-4.9
	c-0.6-0.5-1.2-0.9-1.7-0.9c-0.5-0.1-1,0-1.4,0.3s-0.7,0.7-1,1.2c-0.2,0.5-0.3,1.1-0.3,1.8c-0.1,1.3-0.2,2.4-0.5,3.5
	c-0.2,1.1-0.5,2.2-0.8,3.2s-0.7,2-1.1,3.1c-0.4,1-0.8,2.1-1.3,3.2c-0.6,1.4-0.8,2.5-0.7,3.4c0.1,0.9,0.4,1.5,0.9,2s1.2,0.7,2,0.8
	c0.8,0.1,1.7,0,2.5-0.3c0.9-0.3,1.7-0.7,2.5-1.3C317.6,397.5,318.2,396.8,318.8,396z"/>
<path class="st1" d="M364.2,360.2c-3.2-8.1-8.1-12.7-14.4-18.6c-7.1-6.8-15.9-10.3-24.7-13c-8.8-2.7-23.6-2.6-32.1-1.1
	s-16.4,5.1-23.8,10.8c-7.3,5.7-13,13.6-17,23.6c-2.5,6.4-3,9.3-3.7,16.1c-0.8,6.9-0.7,13.7,0.2,20.4c1.1,9,3.3,17.5,6.7,25.4
	c3.4,7.9,7.9,14.8,13.6,20.6c5.7,5.8,12.5,10.3,20.5,13.3c7.9,3,17,4.1,27.2,3.1c8.8-0.8,22.4-4.3,28.4-9.1
	c6.1-4.8,11-10.7,14.7-17.6c3.7-7,6.3-14.6,7.9-22.9s2.2-16.5,1.8-24.4C369.2,377.2,367.4,368.3,364.2,360.2z M361.3,387.6
	c0.3,6.8-0.2,13.7-1.6,20.9c-1.3,7.1-3.6,13.7-6.8,19.6c-3.2,6-7.4,11-12.6,15.1s-17.7,7.2-25.2,7.9c-8.7,0.9-16.5,0-23.3-2.6
	s-12.6-6.4-17.5-11.4s-8.8-10.9-11.6-17.7c-2.9-6.8-4.8-14-5.7-21.7c-0.8-5.8-0.8-11.6-0.2-17.5c0.6-5.9,2-11.5,4.1-17
	c3.4-8.6,7.2-11.6,13.4-16.5c6.3-4.9,13-8,20.3-9.3s20.8-1.5,28.4,0.8c7.5,2.3,14.2,3.4,20.3,9.2c5.3,5.1,10.6,10.3,13.3,17.3
	C359.5,371.7,361,379.3,361.3,387.6z"/>
<path class="st0" d="M358,363.4c-3.2-8.1-8.1-12.7-14.4-18.6c-7.1-6.8-15.9-10.3-24.7-13c-8.8-2.7-23.6-2.6-32.1-1.1
	s-16.4,5.1-23.8,10.8c-7.3,5.7-13,13.6-17,23.6c-2.5,6.4-3,9.3-3.7,16.1c-0.8,6.9-0.7,13.7,0.2,20.4c1.1,9,3.3,17.5,6.7,25.4
	s7.9,14.8,13.6,20.6c5.7,5.8,12.5,10.3,20.5,13.3c7.9,3,17,4.1,27.2,3.1c8.8-0.8,22.4-4.3,28.4-9.1c6.1-4.8,11-10.7,14.7-17.6
	c3.7-7,6.3-14.6,7.9-22.9s2.2-16.5,1.8-24.4C362.9,380.4,361.2,371.5,358,363.4z M355.1,390.8c0.3,6.8-0.2,13.7-1.6,20.9
	c-1.3,7.1-3.6,13.7-6.8,19.6c-3.2,6-7.4,11-12.6,15.1s-17.7,7.2-25.2,7.9c-8.7,0.9-16.5,0-23.3-2.6s-12.6-6.4-17.5-11.4
	s-8.8-10.9-11.6-17.7c-2.9-6.8-4.8-14-5.7-21.7c-0.8-5.8-0.8-11.6-0.2-17.5s2-11.5,4.1-17c3.4-8.6,7.2-11.6,13.4-16.5
	c6.3-4.9,13-8,20.3-9.3s20.8-1.5,28.4,0.8c7.5,2.3,14.2,3.4,20.3,9.2c5.3,5.1,10.6,10.3,13.3,17.3
	C353.2,374.9,354.8,382.5,355.1,390.8z"/>
<g>
	<path class="st0" d="M353.9,398.4c1,1.3,1.4,2.8,1.2,4.4c-0.2,1.6-1,3-2.3,4c-0.9,0.7-1.9,1-3.1,1.1c-1.5,1.3-19.7,19.3-21.2,20.5
		c-1.5,1.3,0.4-0.2-1.9,1.3s-4.6,2.8-6.7,3.9c-2.2,1.1-4.5,1.9-7,2.4c-2.5,0.6-4.8,0.7-6.9,0.3c-3.5-0.6-6.4-2.4-8.6-5.3
		c-0.7-0.9-1.3-1.9-1.9-3.1c-0.7-1.5-0.8-3-0.2-4.6c0.6-1.5,1.6-2.7,3.1-3.4c1.5-0.7,3-0.8,4.6-0.2c1.5,0.6,2.7,1.6,3.4,3.1
		c0.5,1,1.1,1.6,1.8,1.7c1.9,0.3,4.7-0.5,8.4-2.6s20.1-18.5,23.7-21.6l-1.4-1.9c-1-1.3-1.4-2.8-1.2-4.4c0.2-1.6,1-3,2.3-4
		c0.6-0.5,1.4-0.8,2.1-1c0.8-0.2,1.5-0.3,2.3-0.2c0.7,0.1,1.5,0.3,2.2,0.7c0.7,0.4,1.3,0.9,1.8,1.6L353.9,398.4z"/>
</g>
<g>
	<g>
		<g>
			<path class="st0" d="M263.7,401.6c-0.5,1.2-1,2.3-1.6,3.5c-0.8,1.7-1.8,2.7-3,3.3c-1.2,0.5-2.4,0.7-3.5,0.4
				c-1.1-0.3-2.1-0.8-3-1.7c-0.8-0.9-1.3-2-1.4-3.2c-0.1-0.6,0-1.1,0.1-1.7c0.2-0.6,0.4-1.1,0.6-1.6c0.3-0.5,0.6-1,0.9-1.5
				c0.3-0.5,0.7-0.9,1-1.3c1.3-1.9,2.6-3.5,3.9-5.5"/>
		</g>
	</g>
	<path class="st0" d="M291,371.5c0.9,2.2,1.4,4.4,1.6,6.6s0,4.4-0.4,6.7c-0.4,2.2-1,4.2-1.8,6.3c-0.8,2-1.9,3.9-3.3,5.7
		c-1,1.2-2,2.2-3,3.2c-1.1,1-2.2,1.9-3.4,2.6c-1.2,0.7-2.5,1.3-3.8,1.7c-1.3,0.4-2.7,0.6-4.2,0.5c-2.1-0.1-4.2-0.5-6.1-1
		c-2-0.5-3.9-1.4-5.7-2.5c-1.9-1.1-3.2-2.7-3.9-4.6c-0.2-0.5-0.2-1.1-0.1-1.6c0.1-0.6,0.4-1.2,0.7-1.9c0.3-0.7,0.7-1.3,1.2-2
		s0.9-1.4,1.4-2c1.4-2,2.5-3.8,3.4-5.5c0.8-1.7,1.4-3.4,1.8-5.2c0.4-1.7,0.6-3.5,0.6-5.2c0-1.8-0.1-3.7-0.2-5.9c0-0.5,0-1.1-0.1-1.6
		s0-1,0.1-1.5c0.1-0.8,0.4-1.6,0.9-2.2c0.4-0.6,1-1.1,1.6-1.5c0.6-0.3,1.4-0.5,2.2-0.6c0.8-0.1,1.7,0,2.6,0.3
		c1.8,0.5,3.6,1.1,5.4,1.6c1.8,0.6,3.6,1.3,5.2,2.1c1.6,0.8,3.1,1.9,4.5,3.1C289.2,368.2,290.2,369.7,291,371.5z M281.5,390.4
		c0.6-0.9,1.1-1.9,1.5-3s0.6-2.2,0.8-3.3c0.1-1.1,0.2-2.2,0.1-3.4c-0.1-1.1-0.3-2.2-0.5-3.2c-0.6-2-1.6-3.6-3-4.9
		c-0.6-0.5-1.2-0.9-1.7-0.9c-0.5-0.1-1,0-1.4,0.3s-0.7,0.7-1,1.2c-0.2,0.5-0.3,1.1-0.3,1.8c-0.1,1.3-0.2,2.4-0.5,3.5
		c-0.2,1.1-0.5,2.2-0.8,3.2s-0.7,2-1.1,3.1c-0.4,1-0.8,2.1-1.3,3.2c-0.6,1.4-0.8,2.5-0.7,3.4c0.1,0.9,0.4,1.5,0.9,2s1.2,0.7,2,0.8
		c0.8,0.1,1.7,0,2.5-0.3c0.9-0.3,1.7-0.7,2.5-1.3C280.3,392,281,391.3,281.5,390.4z"/>
</g>
</svg>
