<?xml version="1.0" encoding="UTF-8"?><svg id="Layer_2" xmlns="http://www.w3.org/2000/svg" viewBox="0 0 105.03 77.73"><defs><style>.cls-1{fill:none;stroke:#000;stroke-miterlimit:10;}</style></defs><path class="cls-1" d="M77.72,17.64c.88,2.18,1.4,4.37,1.55,6.58,.16,2.2,.03,4.44-.37,6.72-.43,2.16-1.04,4.25-1.81,6.27s-1.87,3.91-3.3,5.68c-.96,1.16-1.98,2.24-3.05,3.24s-2.21,1.85-3.41,2.56c-1.21,.71-2.47,1.26-3.8,1.65s-2.74,.56-4.23,.51c-2.12-.13-4.16-.45-6.12-.98-1.96-.53-3.86-1.36-5.7-2.48-1.92-1.12-3.22-2.66-3.92-4.63-.19-.51-.21-1.06-.08-1.65,.14-.59,.36-1.22,.67-1.88,.31-.66,.69-1.33,1.15-2.01,.46-.68,.94-1.36,1.43-2.02,1.42-1.95,2.54-3.8,3.36-5.53,.81-1.73,1.4-3.45,1.77-5.15,.36-1.7,.55-3.45,.56-5.25,0-1.79-.07-3.75-.24-5.86,0-.55-.02-1.07-.08-1.57s-.04-1,.07-1.52c.15-.83,.44-1.56,.88-2.19,.44-.63,.98-1.12,1.62-1.46,.64-.34,1.36-.55,2.17-.61,.81-.06,1.67,.03,2.57,.28,1.76,.51,3.56,1.05,5.4,1.61,1.84,.56,3.58,1.26,5.23,2.1s3.13,1.87,4.46,3.09,2.39,2.73,3.19,4.51h.03Zm-9.52,18.96c.62-.92,1.12-1.92,1.5-2.99s.64-2.18,.78-3.3,.17-2.24,.09-3.35c-.08-1.11-.26-2.17-.52-3.18-.56-1.96-1.57-3.6-3.04-4.93-.61-.55-1.19-.86-1.73-.94-.54-.08-1.01,0-1.42,.27-.4,.26-.73,.65-.96,1.17-.24,.52-.35,1.11-.33,1.78-.08,1.26-.23,2.43-.45,3.53-.22,1.1-.5,2.15-.82,3.18-.33,1.02-.69,2.05-1.09,3.08-.4,1.03-.82,2.11-1.26,3.24-.56,1.38-.8,2.51-.7,3.38,.09,.88,.39,1.54,.89,1.99s1.16,.71,1.98,.78,1.66-.03,2.52-.29c.86-.26,1.7-.69,2.52-1.28s1.5-1.3,2.05-2.14h-.01Zm35.11,2.44c1,1.31,1.39,2.78,1.16,4.42-.23,1.64-1,2.96-2.33,3.97-.88,.67-1.9,1.05-3.07,1.14-1.46,1.32-19.65,19.27-21.19,20.52s.44-.2-1.87,1.32c-2.32,1.53-4.56,2.82-6.71,3.87s-4.47,1.86-6.96,2.43-4.79,.66-6.89,.3c-3.53-.62-6.39-2.37-8.59-5.27-.69-.91-1.31-1.93-1.85-3.06-.7-1.49-.77-3-.21-4.55s1.59-2.67,3.09-3.39c1.49-.71,3.01-.79,4.56-.24,1.54,.55,2.67,1.57,3.37,3.06,.5,1,1.08,1.57,1.77,1.69,1.92,.34,4.72-.54,8.4-2.64,3.68-2.11,20.09-18.52,23.68-21.62l-1.42-1.87c-1-1.31-1.38-2.79-1.16-4.43,.23-1.64,1-2.96,2.33-3.97,.65-.49,1.36-.83,2.15-1.04,.78-.2,1.55-.25,2.3-.15,.74,.1,1.47,.35,2.17,.74,.7,.39,1.3,.91,1.78,1.55l5.5,7.22h-.01ZM32.76,18.25c-.56-1.96-1.57-3.6-3.04-4.93-.61-.55-1.19-.86-1.73-.94-.54-.08-1.01,0-1.42,.27-.4,.26-.73,.65-.96,1.17-.24,.52-.35,1.11-.33,1.78-.08,1.26-.23,2.43-.45,3.53-.22,1.1-.5,2.15-.82,3.18-.33,1.02-.69,2.05-1.09,3.08-.4,1.03-.82,2.11-1.26,3.24-.56,1.38-.8,2.51-.7,3.38,.09,.88,.39,1.54,.89,1.99s1.16,.71,1.98,.78,1.66-.03,2.52-.29c.86-.26,1.7-.69,2.52-1.28,.82-.59,1.5-1.3,2.05-2.14h0c.62-.92,1.12-1.92,1.5-2.99,.38-1.07,.64-2.18,.78-3.3s.17-2.24,.09-3.35c-.08-1.11-.26-2.17-.52-3.18Zm9.22,.43c-.15-2.21-.67-4.4-1.55-6.58h-.03c-.8-1.77-1.86-3.28-3.19-4.5-1.33-1.22-2.81-2.25-4.46-3.09-1.65-.84-3.39-1.54-5.23-2.1-1.84-.56-3.64-1.1-5.4-1.61-.9-.25-1.76-.34-2.57-.28s-1.53,.27-2.17,.61c-.64,.34-1.18,.83-1.62,1.46-.44,.63-.73,1.36-.88,2.19-.11,.52-.13,1.02-.07,1.52s.08,1.02,.08,1.57c.17,2.11,.25,4.07,.24,5.86-.01,1.8-.2,3.55-.56,5.25-.37,1.7-.96,3.42-1.77,5.15-.82,1.73-1.94,3.58-3.36,5.53-.49,.66-.97,1.34-1.43,2.02-.31,.46-.86,1.27-.86,1.27-1.3,1.93-2.53,3.57-3.88,5.45-.34,.41-.69,.86-1.03,1.34-.34,.48-.65,.99-.92,1.51-.28,.52-.49,1.06-.65,1.61-.16,.55-.2,1.11-.14,1.67,.11,1.22,.58,2.29,1.41,3.18,.83,.9,1.82,1.47,2.97,1.74,1.15,.27,2.33,.13,3.54-.39,1.21-.53,2.22-1.62,3.03-3.27,.41-.89,.79-1.76,1.18-2.64,1.06,.48,2.14,.88,3.23,1.18,1.96,.53,4,.85,6.12,.98,1.49,.05,2.9-.12,4.23-.51,1.33-.39,2.59-.94,3.8-1.65,1.2-.71,2.34-1.56,3.41-2.56s2.09-2.08,3.05-3.24c1.43-1.77,2.53-3.66,3.3-5.68,.77-2.02,1.38-4.11,1.81-6.27,.4-2.28,.53-4.52,.37-6.72Zm-8.79,6.1c-.14,1.12-.4,2.23-.78,3.3-.38,1.07-.88,2.07-1.5,2.99h0c-.55,.84-1.23,1.55-2.05,2.14-.82,.59-1.66,1.02-2.52,1.28-.86,.26-1.7,.36-2.52,.29s-1.48-.33-1.98-.78-.8-1.11-.89-1.99c-.1-.87,.14-2,.7-3.38,.44-1.13,.86-2.21,1.26-3.24,.4-1.03,.76-2.06,1.09-3.08,.32-1.03,.6-2.08,.82-3.18,.22-1.1,.37-2.27,.45-3.53-.02-.67,.09-1.26,.33-1.78,.23-.52,.56-.91,.96-1.17,.41-.27,.88-.35,1.42-.27,.54,.08,1.12,.39,1.73,.94,1.47,1.33,2.48,2.97,3.04,4.93,.26,1.01,.44,2.07,.52,3.18,.08,1.11,.05,2.23-.09,3.35Z"/></svg>