<?xml version="1.0" encoding="UTF-8"?><svg id="Layer_2" xmlns="http://www.w3.org/2000/svg" viewBox="0 0 121.58 134.8"><defs><style>.cls-1{fill:none;}</style></defs><g id="Layer_1-2"><path d="M116.16,33.68c-3.21-8.12-8.14-12.66-14.38-18.6-7.07-6.77-15.91-10.26-24.69-12.95C68.29-.56,53.5-.44,44.98,1.05c-8.53,1.49-16.45,5.09-23.75,10.81-7.31,5.72-12.97,13.59-16.98,23.62-2.48,6.38-2.99,9.28-3.74,16.14-.75,6.87-.68,13.68,.22,20.44,1.08,9,3.3,17.46,6.66,25.37,3.37,7.92,7.9,14.8,13.6,20.63,5.7,5.83,12.52,10.27,20.46,13.31,7.94,3.04,17.01,4.06,27.2,3.06,8.79-.81,22.36-4.33,28.44-9.12,6.07-4.78,10.96-10.65,14.66-17.62,3.7-6.96,6.34-14.61,7.9-22.94,1.56-8.34,2.18-16.46,1.84-24.37-.34-9.68-2.11-18.59-5.33-26.71h0Zm-2.9,27.39c.29,6.77-.24,13.73-1.57,20.86-1.34,7.14-3.59,13.69-6.76,19.64-3.17,5.96-7.36,10.99-12.55,15.08-5.2,4.1-17.7,7.22-25.23,7.91-8.73,.86-16.49-.02-23.29-2.62-6.8-2.6-12.64-6.4-17.52-11.39s-8.76-10.88-11.64-17.66-4.78-14.02-5.7-21.72c-.77-5.79-.83-11.62-.19-17.5s2.02-11.55,4.14-17.01c3.43-8.59,7.18-11.6,13.44-16.49,6.26-4.89,13.04-7.98,20.34-9.26,7.3-1.27,20.85-1.48,28.37,.82,7.52,2.31,14.22,3.41,20.28,9.21,5.33,5.1,10.59,10.32,13.34,17.27s4.27,14.58,4.56,22.87h-.02Z"/><g><path class="cls-1" d="M67.94,69.2c.5,.45,1.16,.71,1.98,.78s1.66-.03,2.52-.29c.86-.26,1.7-.69,2.52-1.28,.82-.59,1.5-1.3,2.05-2.14h-.01c.62-.92,1.12-1.92,1.5-2.99s.64-2.18,.78-3.3c.14-1.12,.17-2.24,.09-3.35-.08-1.11-.26-2.17-.52-3.18-.56-1.96-1.57-3.6-3.04-4.93-.61-.55-1.19-.86-1.73-.94-.54-.08-1.01,0-1.42,.27-.4,.26-.73,.65-.96,1.17-.24,.52-.35,1.11-.33,1.78-.08,1.26-.23,2.43-.45,3.53-.22,1.1-.5,2.15-.82,3.18-.33,1.02-.69,2.05-1.09,3.08-.4,1.03-.82,2.11-1.26,3.24-.56,1.38-.8,2.51-.7,3.38,.09,.88,.39,1.54,.89,1.99Z"/><path d="M49.23,41.76h-.03c-.8-1.77-1.86-3.28-3.19-4.5-1.33-1.22-2.81-2.25-4.46-3.09-1.65-.84-3.39-1.54-5.23-2.1-1.84-.56-3.64-1.1-5.4-1.61-.9-.25-1.76-.34-2.57-.28s-1.53,.27-2.17,.61c-.64,.34-1.18,.83-1.62,1.46-.44,.63-.73,1.36-.88,2.19-.11,.52-.13,1.02-.07,1.52s.08,1.02,.08,1.57c.17,2.11,.25,4.07,.24,5.86-.01,1.8-.2,3.55-.56,5.25-.37,1.7-.96,3.42-1.77,5.15-.82,1.73-1.94,3.58-3.36,5.53-.49,.66-.97,1.34-1.43,2.02-.31,.46-.86,1.27-.86,1.27-1.3,1.93-2.53,3.57-3.88,5.45-.34,.41-.69,.86-1.03,1.34-.34,.48-.65,.99-.92,1.51-.28,.52-.49,1.06-.65,1.61-.16,.55-.2,1.11-.14,1.67,.11,1.22,.58,2.29,1.41,3.18,.83,.9,1.82,1.47,2.97,1.74,1.15,.27,2.33,.13,3.54-.39,1.21-.53,2.22-1.62,3.03-3.27,.41-.89,.79-1.76,1.18-2.64,1.06,.48,2.14,.88,3.23,1.18,1.96,.53,4,.85,6.12,.98,1.49,.05,2.9-.12,4.23-.51,1.33-.39,2.59-.94,3.8-1.65,1.2-.71,2.34-1.56,3.41-2.56s2.09-2.08,3.05-3.24c1.43-1.77,2.53-3.66,3.3-5.68,.77-2.02,1.38-4.11,1.81-6.27,.4-2.28,.53-4.52,.37-6.72-.15-2.21-.67-4.4-1.55-6.58Zm-7.24,12.68c-.14,1.12-.4,2.23-.78,3.3-.38,1.07-.88,2.07-1.5,2.99h0c-.55,.84-1.23,1.55-2.05,2.14-.82,.59-1.66,1.02-2.52,1.28-.86,.26-1.7,.36-2.52,.29s-1.48-.33-1.98-.78-.8-1.11-.89-1.99c-.1-.87,.14-2,.7-3.38,.44-1.13,.86-2.21,1.26-3.24,.4-1.03,.76-2.06,1.09-3.08,.32-1.03,.6-2.08,.82-3.18,.22-1.1,.37-2.27,.45-3.53-.02-.67,.09-1.26,.33-1.78,.23-.52,.56-.91,.96-1.17,.41-.27,.88-.35,1.42-.27,.54,.08,1.12,.39,1.73,.94,1.47,1.33,2.48,2.97,3.04,4.93,.26,1.01,.44,2.07,.52,3.18,.08,1.11,.05,2.23-.09,3.35Z"/><path d="M56.28,77.05c1.84,1.12,3.74,1.95,5.7,2.48,1.96,.53,4,.85,6.12,.98,1.49,.05,2.9-.12,4.23-.51,1.33-.39,2.59-.94,3.8-1.65,1.2-.71,2.34-1.56,3.41-2.56s2.09-2.08,3.05-3.24c1.43-1.77,2.53-3.66,3.3-5.68,.77-2.02,1.38-4.11,1.81-6.27,.4-2.28,.53-4.52,.37-6.72-.15-2.21-.67-4.4-1.55-6.58h-.03c-.8-1.77-1.86-3.28-3.19-4.5-1.33-1.22-2.81-2.25-4.46-3.09-1.65-.84-3.39-1.54-5.23-2.1-1.84-.56-3.64-1.1-5.4-1.61-.9-.25-1.76-.34-2.57-.28s-1.53,.27-2.17,.61c-.64,.34-1.18,.83-1.62,1.46s-.73,1.36-.88,2.19c-.11,.52-.13,1.02-.07,1.52s.08,1.02,.08,1.57c.17,2.11,.25,4.07,.24,5.86-.01,1.8-.2,3.55-.56,5.25-.37,1.7-.96,3.42-1.77,5.15-.82,1.73-1.94,3.58-3.36,5.53-.49,.66-.97,1.34-1.43,2.02-.46,.68-.84,1.35-1.15,2.01-.31,.66-.53,1.29-.67,1.88-.13,.59-.11,1.14,.08,1.65,.7,1.97,2,3.51,3.92,4.63Zm11.47-13.22c.44-1.13,.86-2.21,1.26-3.24,.4-1.03,.76-2.06,1.09-3.08,.32-1.03,.6-2.08,.82-3.18,.22-1.1,.37-2.27,.45-3.53-.02-.67,.09-1.26,.33-1.78,.23-.52,.56-.91,.96-1.17,.41-.27,.88-.35,1.42-.27,.54,.08,1.12,.39,1.73,.94,1.47,1.33,2.48,2.97,3.04,4.93,.26,1.01,.44,2.07,.52,3.18,.08,1.11,.05,2.23-.09,3.35-.14,1.12-.4,2.23-.78,3.3s-.88,2.07-1.5,2.99h.01c-.55,.84-1.23,1.55-2.05,2.14-.82,.59-1.66,1.02-2.52,1.28-.86,.26-1.7,.36-2.52,.29s-1.48-.33-1.98-.78c-.5-.45-.8-1.11-.89-1.99-.1-.87,.14-2,.7-3.38Z"/><path d="M86.03,99.32s.02,0,0,0h0Z"/><path d="M112.11,68.71h.01l-5.5-7.22c-.48-.64-1.08-1.16-1.78-1.55-.7-.39-1.43-.64-2.17-.74-.75-.1-1.52-.05-2.3,.15-.79,.21-1.5,.55-2.15,1.04-1.33,1.01-2.1,2.33-2.33,3.97-.22,1.64,.16,3.12,1.16,4.43l1.42,1.87c-3.59,3.1-20,19.51-23.68,21.62-3.68,2.1-6.48,2.98-8.4,2.64-.69-.12-1.27-.69-1.77-1.69-.7-1.49-1.83-2.51-3.37-3.06-1.55-.55-3.07-.47-4.56,.24-1.5,.72-2.53,1.84-3.09,3.39s-.49,3.06,.21,4.55c.54,1.13,1.16,2.15,1.85,3.06,2.2,2.9,5.06,4.65,8.59,5.27,2.1,.36,4.4,.27,6.89-.3,2.49-.57,4.81-1.38,6.96-2.43,2.15-1.05,4.39-2.34,6.71-3.87,.97-.64,1.18-.75,1.22-.76,.02-.03,.14-.14,.65-.56,1.54-1.25,19.73-19.2,21.19-20.52,1.17-.09,2.19-.47,3.07-1.14,1.33-1.01,2.1-2.33,2.33-3.97,.23-1.64-.16-3.11-1.16-4.42Z"/></g></g></svg>