<?xml version="1.0" encoding="utf-8"?>
<!-- Generator: Adobe Illustrator 26.3.1, SVG Export Plug-In . SVG Version: 6.00 Build 0)  -->
<svg version="1.1" id="Layer_2_00000049932786728454095710000007139008918812545183_"
	 xmlns="http://www.w3.org/2000/svg" xmlns:xlink="http://www.w3.org/1999/xlink" x="0px" y="0px" viewBox="0 0 127.9 137.9"
	 style="enable-background:new 0 0 127.9 137.9;" xml:space="preserve">
<style type="text/css">
	.st0{fill:#FFFFFF;}
	.st1{fill:#010101;}
	.st2{fill:#F15822;}
</style>
<g id="Layer_1-2">
	<path class="st0" d="M116.4,62.7c0.3,7-0.2,14-1.6,21.4c-1.3,7.3-3.6,14-6.8,20.1c-3.2,6.2-7.4,11.3-12.6,15.5
		c-5.2,4.2-17.7,7.4-25.2,8.1c-8.7,0.9-16.5,0-23.3-2.7c-6.8-2.7-12.6-6.6-17.5-11.7s-8.8-11.2-11.6-18.1c-2.9-7-4.8-14.4-5.7-22.2
		c-0.8-5.9-0.8-11.9-0.2-17.9s2-11.8,4.1-17.4c3.4-8.8,7.2-11.9,13.4-16.9c6.3-5,13-8.2,20.3-9.5s20.8-1.5,28.4,0.8
		c7.5,2.4,14.2,3.5,20.3,9.4c5.3,5.2,10.6,10.6,13.3,17.7C114.5,46.4,116.1,54.2,116.4,62.7z"/>
	<path class="st1" d="M86.5,50.5c0.9,2.2,1.4,4.4,1.6,6.6s0,4.4-0.4,6.7c-0.4,2.2-1,4.2-1.8,6.3c-0.8,2-1.9,3.9-3.3,5.7
		c-1,1.2-2,2.2-3,3.2c-1.1,1-2.2,1.9-3.4,2.6c-1.2,0.7-2.5,1.3-3.8,1.7c-1.3,0.4-2.7,0.6-4.2,0.5c-2.1-0.1-4.2-0.5-6.1-1
		c-2-0.5-3.9-1.4-5.7-2.5c-1.9-1.1-3.2-2.7-3.9-4.6c-0.2-0.5-0.2-1.1-0.1-1.6c0.1-0.6,0.4-1.2,0.7-1.9c0.3-0.7,0.7-1.3,1.2-2
		s0.9-1.4,1.4-2c1.4-2,2.5-3.8,3.4-5.5c0.8-1.7,1.4-3.4,1.8-5.2c0.4-1.7,0.6-3.5,0.6-5.2c0-1.8-0.1-3.7-0.2-5.9c0-0.5,0-1.1-0.1-1.6
		s0-1,0.1-1.5c0.1-0.8,0.4-1.6,0.9-2.2c0.4-0.6,1-1.1,1.6-1.5c0.6-0.3,1.4-0.5,2.2-0.6s1.7,0,2.6,0.3c1.8,0.5,3.6,1.1,5.4,1.6
		c1.8,0.6,3.6,1.3,5.2,2.1s3.1,1.9,4.5,3.1C84.7,47.2,85.7,48.7,86.5,50.5L86.5,50.5z M77,69.6c0.6-0.9,1.1-1.9,1.5-3
		s0.6-2.2,0.8-3.3c0.1-1.1,0.2-2.2,0.1-3.4c-0.1-1.1-0.3-2.2-0.5-3.2c-0.6-2-1.6-3.6-3-4.9c-0.6-0.5-1.2-0.9-1.7-0.9
		c-0.5-0.1-1,0-1.4,0.3s-0.7,0.7-1,1.2c-0.2,0.5-0.3,1.1-0.3,1.8c-0.1,1.3-0.2,2.4-0.5,3.5c-0.2,1.1-0.5,2.2-0.8,3.2s-0.7,2-1.1,3.1
		c-0.4,1-0.8,2.1-1.3,3.2c-0.6,1.4-0.8,2.5-0.7,3.4c0.1,0.9,0.4,1.5,0.9,2s1.2,0.7,2,0.8c0.8,0.1,1.7,0,2.5-0.3
		c0.9-0.3,1.7-0.7,2.5-1.3C75.8,71,76.4,70.3,77,69.6z"/>
	<path class="st2" d="M122.4,33.8c-3.2-8.1-8.1-12.7-14.4-18.6c-7.1-6.8-15.9-10.3-24.7-13S59.7-0.4,51.2,1S34.8,6.1,27.4,11.9
		c-7.3,5.7-13,13.6-17,23.6c-2.5,6.4-3,9.3-3.7,16.1C5.9,58.5,6,65.2,6.9,72c1.1,9,3.3,17.5,6.7,25.4s7.9,14.8,13.6,20.6
		c5.7,5.8,12.5,10.3,20.5,13.3c7.9,3,17,4.1,27.2,3.1c8.8-0.8,22.4-4.3,28.4-9.1c6.1-4.8,11-10.7,14.7-17.6c3.7-7,6.3-14.6,7.9-22.9
		s2.2-16.5,1.8-24.4C127.4,50.8,125.6,41.9,122.4,33.8z M119.5,61.2c0.3,6.8-0.2,13.7-1.6,20.9c-1.3,7.1-3.6,13.7-6.8,19.6
		c-3.2,6-7.4,11-12.6,15.1s-17.7,7.2-25.2,7.9c-8.7,0.9-16.5,0-23.3-2.6s-12.6-6.4-17.5-11.4s-8.8-10.9-11.6-17.7
		c-2.9-6.8-4.8-14-5.7-21.7c-0.8-5.8-0.8-11.6-0.2-17.5s2-11.5,4.1-17c3.4-8.6,7.2-11.6,13.4-16.5c6.3-4.9,13-8,20.3-9.3
		s20.8-1.5,28.4,0.8c7.5,2.3,14.2,3.4,20.3,9.2c5.3,5.1,10.6,10.3,13.3,17.3C117.7,45.2,119.2,52.8,119.5,61.2z"/>
	<path class="st1" d="M116.2,37c-3.2-8.1-8.1-12.7-14.4-18.6c-7.1-6.8-15.9-10.3-24.7-13S53.5,2.8,45,4.3S28.6,9.4,21.2,15.1
		c-7.3,5.7-13,13.6-17,23.6c-2.5,6.4-3,9.3-3.7,16.1c-0.8,6.9-0.7,13.7,0.2,20.4c1.1,9,3.3,17.5,6.7,25.4s7.9,14.8,13.6,20.6
		c5.7,5.8,12.5,10.3,20.5,13.3c7.9,3,17,4.1,27.2,3.1c8.8-0.8,22.4-4.3,28.4-9.1c6.1-4.8,11-10.7,14.7-17.6c3.7-7,6.3-14.6,7.9-22.9
		s2.2-16.5,1.8-24.4C121.1,53.9,119.4,45,116.2,37z M113.3,64.3c0.3,6.8-0.2,13.7-1.6,20.9c-1.3,7.1-3.6,13.7-6.8,19.6
		c-3.2,6-7.4,11-12.6,15.1s-17.7,7.2-25.2,7.9c-8.7,0.9-16.5,0-23.3-2.6s-12.6-6.4-17.5-11.4s-8.8-10.9-11.6-17.7
		c-2.9-6.8-4.8-14-5.7-21.7c-0.8-5.8-0.8-11.6-0.2-17.5s2-11.5,4.1-17c3.4-8.6,7.2-11.6,13.4-16.5c6.3-4.9,13-8,20.3-9.3
		s20.8-1.5,28.4,0.8c7.5,2.3,14.2,3.4,20.3,9.2c5.3,5.1,10.6,10.3,13.3,17.3C111.4,48.4,113,56,113.3,64.3z"/>
	<path class="st1" d="M112.1,71.9c1,1.3,1.4,2.8,1.2,4.4c-0.2,1.6-1,3-2.3,4c-0.9,0.7-1.9,1-3.1,1.1c-1.5,1.3-19.7,19.3-21.2,20.5
		c-1.5,1.3,0.4-0.2-1.9,1.3s-4.6,2.8-6.7,3.9c-2.2,1.1-4.5,1.9-7,2.4c-2.5,0.6-4.8,0.7-6.9,0.3c-3.5-0.6-6.4-2.4-8.6-5.3
		c-0.7-0.9-1.3-1.9-1.9-3.1c-0.7-1.5-0.8-3-0.2-4.6c0.6-1.5,1.6-2.7,3.1-3.4c1.5-0.7,3-0.8,4.6-0.2c1.5,0.6,2.7,1.6,3.4,3.1
		c0.5,1,1.1,1.6,1.8,1.7c1.9,0.3,4.7-0.5,8.4-2.6S94.9,77,98.5,73.9L97.1,72c-1-1.3-1.4-2.8-1.2-4.4c0.2-1.6,1-3,2.3-4
		c0.6-0.5,1.4-0.8,2.1-1c0.8-0.2,1.5-0.3,2.3-0.2c0.7,0.1,1.5,0.3,2.2,0.7s1.3,0.9,1.8,1.6C106.6,64.7,112.1,72,112.1,71.9z"/>
	<g>
		<path class="st1" d="M21.9,75.2c-0.5,1.2-1,2.3-1.6,3.5c-0.8,1.7-1.8,2.7-3,3.3c-1.2,0.5-2.4,0.7-3.5,0.4c-1.1-0.3-2.1-0.8-3-1.7
			c-0.8-0.9-1.3-2-1.4-3.2c-0.1-0.6,0-1.1,0.1-1.7c0.2-0.6,0.4-1.1,0.6-1.6l0.9-1.5c0.3-0.5,0.7-0.9,1-1.3c1.3-1.9,2.6-3.5,3.9-5.5"
			/>
		<path class="st1" d="M49.2,45c0.9,2.2,1.4,4.4,1.6,6.6s0,4.4-0.4,6.7c-0.4,2.2-1,4.2-1.8,6.3c-0.8,2-1.9,3.9-3.3,5.7
			c-1,1.2-2,2.2-3,3.2c-1.1,1-2.2,1.9-3.4,2.6s-2.5,1.3-3.8,1.7c-1.3,0.4-2.7,0.6-4.2,0.5c-2.1-0.1-4.2-0.5-6.1-1
			c-2-0.5-3.9-1.4-5.7-2.5c-1.9-1.1-3.2-2.7-3.9-4.6c-0.2-0.5-0.2-1.1-0.1-1.6c0.1-0.6,0.4-1.2,0.7-1.9c0.3-0.7,0.7-1.3,1.2-2
			s0.9-1.4,1.4-2c1.4-2,2.5-3.8,3.4-5.5c0.8-1.7,1.4-3.4,1.8-5.2c0.4-1.7,0.6-3.5,0.6-5.2c0-1.8-0.1-3.7-0.2-5.9
			c0-0.5,0-1.1-0.1-1.6s0-1,0.1-1.5c0.1-0.8,0.4-1.6,0.9-2.2c0.4-0.6,1-1.1,1.6-1.5c0.6-0.3,1.4-0.5,2.2-0.6c0.8-0.1,1.7,0,2.6,0.3
			c1.8,0.5,3.6,1.1,5.4,1.6c1.8,0.6,3.6,1.3,5.2,2.1c1.6,0.8,3.1,1.9,4.5,3.1C47.4,41.7,48.4,43.2,49.2,45L49.2,45z M39.7,63.9
			c0.6-0.9,1.1-1.9,1.5-3s0.6-2.2,0.8-3.3c0.1-1.1,0.2-2.2,0.1-3.4C42,53.1,41.8,52,41.6,51c-0.6-2-1.6-3.6-3-4.9
			c-0.6-0.5-1.2-0.9-1.7-0.9c-0.5-0.1-1,0-1.4,0.3s-0.7,0.7-1,1.2c-0.2,0.5-0.3,1.1-0.3,1.8c-0.1,1.3-0.2,2.4-0.5,3.5
			c-0.2,1.1-0.5,2.2-0.8,3.2s-0.7,2-1.1,3.1c-0.4,1-0.8,2.1-1.3,3.2c-0.6,1.4-0.8,2.5-0.7,3.4c0.1,0.9,0.4,1.5,0.9,2s1.2,0.7,2,0.8
			c0.8,0.1,1.7,0,2.5-0.3c0.9-0.3,1.7-0.7,2.5-1.3C38.5,65.5,39.2,64.8,39.7,63.9L39.7,63.9z"/>
	</g>
</g>
</svg>
