<?xml version="1.0" encoding="UTF-8"?><svg id="Layer_2" xmlns="http://www.w3.org/2000/svg" viewBox="0 0 127.86 137.93"><defs><style>.cls-1{fill:none;}.cls-2{fill:#010101;}.cls-3{fill:#f15822;}.cls-4{fill:#fff;}</style></defs><g id="Layer_1-2"><path class="cls-4" d="M116.44,62.67c.3,7-.2,14-1.6,21.4-1.3,7.3-3.6,14-6.8,20.1-3.2,6.2-7.4,11.3-12.6,15.5s-17.7,7.4-25.2,8.1c-8.7,.9-16.5,0-23.3-2.7s-12.6-6.6-17.5-11.7-8.8-11.2-11.6-18.1c-2.9-7-4.8-14.4-5.7-22.2-.8-5.9-.8-11.9-.2-17.9s2-11.8,4.1-17.4c3.4-8.8,7.2-11.9,13.4-16.9,6.3-5,13-8.2,20.3-9.5s20.8-1.5,28.4,.8c7.5,2.4,14.2,3.5,20.3,9.4,5.3,5.2,10.6,10.6,13.3,17.7,2.8,7.1,4.4,14.9,4.7,23.4Z"/><path class="cls-2" d="M86.54,50.47c.9,2.2,1.4,4.4,1.6,6.6s0,4.4-.4,6.7c-.4,2.2-1,4.2-1.8,6.3-.8,2-1.9,3.9-3.3,5.7-1,1.2-2,2.2-3,3.2-1.1,1-2.2,1.9-3.4,2.6-1.2,.7-2.5,1.3-3.8,1.7-1.3,.4-2.7,.6-4.2,.5-2.1-.1-4.2-.5-6.1-1-2-.5-3.9-1.4-5.7-2.5-1.9-1.1-3.2-2.7-3.9-4.6-.2-.5-.2-1.1-.1-1.6,.1-.6,.4-1.2,.7-1.9,.3-.7,.7-1.3,1.2-2s.9-1.4,1.4-2c1.4-2,2.5-3.8,3.4-5.5,.8-1.7,1.4-3.4,1.8-5.2,.4-1.7,.6-3.5,.6-5.2,0-1.8-.1-3.7-.2-5.9,0-.5,0-1.1-.1-1.6s0-1,.1-1.5c.1-.8,.4-1.6,.9-2.2,.4-.6,1-1.1,1.6-1.5,.6-.3,1.4-.5,2.2-.6s1.7,0,2.6,.3c1.8,.5,3.6,1.1,5.4,1.6,1.8,.6,3.6,1.3,5.2,2.1s3.1,1.9,4.5,3.1c1,1.1,2,2.6,2.8,4.4h0Zm-9.5,19.1c.6-.9,1.1-1.9,1.5-3s.6-2.2,.8-3.3c.1-1.1,.2-2.2,.1-3.4-.1-1.1-.3-2.2-.5-3.2-.6-2-1.6-3.6-3-4.9-.6-.5-1.2-.9-1.7-.9-.5-.1-1,0-1.4,.3s-.7,.7-1,1.2c-.2,.5-.3,1.1-.3,1.8-.1,1.3-.2,2.4-.5,3.5-.2,1.1-.5,2.2-.8,3.2s-.7,2-1.1,3.1c-.4,1-.8,2.1-1.3,3.2-.6,1.4-.8,2.5-.7,3.4,.1,.9,.4,1.5,.9,2s1.2,.7,2,.8c.8,.1,1.7,0,2.5-.3,.9-.3,1.7-.7,2.5-1.3,.8-.8,1.4-1.5,2-2.2Z"/><path class="cls-3" d="M122.44,33.77c-3.2-8.1-8.1-12.7-14.4-18.6-7.1-6.8-15.9-10.3-24.7-13S59.74-.43,51.24,.97c-8.5,1.4-16.4,5.1-23.8,10.9-7.3,5.7-13,13.6-17,23.6-2.5,6.4-3,9.3-3.7,16.1-.8,6.9-.7,13.6,.2,20.4,1.1,9,3.3,17.5,6.7,25.4,3.4,7.9,7.9,14.8,13.6,20.6,5.7,5.8,12.5,10.3,20.5,13.3,7.9,3,17,4.1,27.2,3.1,8.8-.8,22.4-4.3,28.4-9.1,6.1-4.8,11-10.7,14.7-17.6,3.7-7,6.3-14.6,7.9-22.9s2.2-16.5,1.8-24.4c-.3-9.6-2.1-18.5-5.3-26.6Zm-2.9,27.4c.3,6.8-.2,13.7-1.6,20.9-1.3,7.1-3.6,13.7-6.8,19.6-3.2,6-7.4,11-12.6,15.1s-17.7,7.2-25.2,7.9c-8.7,.9-16.5,0-23.3-2.6s-12.6-6.4-17.5-11.4-8.8-10.9-11.6-17.7c-2.9-6.8-4.8-14-5.7-21.7-.8-5.8-.8-11.6-.2-17.5s2-11.5,4.1-17c3.4-8.6,7.2-11.6,13.4-16.5,6.3-4.9,13-8,20.3-9.3s20.8-1.5,28.4,.8c7.5,2.3,14.2,3.4,20.3,9.2,5.3,5.1,10.6,10.3,13.3,17.3,2.9,6.9,4.4,14.5,4.7,22.9Z"/><path class="cls-2" d="M116.24,36.97c-3.2-8.1-8.1-12.7-14.4-18.6-7.1-6.8-15.9-10.3-24.7-13s-23.6-2.6-32.1-1.1c-8.5,1.5-16.4,5.1-23.8,10.8-7.3,5.7-13,13.6-17,23.6-2.5,6.4-3,9.3-3.7,16.1-.8,6.9-.7,13.7,.2,20.4,1.1,9,3.3,17.5,6.7,25.4,3.4,7.9,7.9,14.8,13.6,20.6,5.7,5.8,12.5,10.3,20.5,13.3,7.9,3,17,4.1,27.2,3.1,8.8-.8,22.4-4.3,28.4-9.1,6.1-4.8,11-10.7,14.7-17.6,3.7-7,6.3-14.6,7.9-22.9s2.2-16.5,1.8-24.4c-.4-9.7-2.1-18.6-5.3-26.6Zm-2.9,27.3c.3,6.8-.2,13.7-1.6,20.9-1.3,7.1-3.6,13.7-6.8,19.6-3.2,6-7.4,11-12.6,15.1s-17.7,7.2-25.2,7.9c-8.7,.9-16.5,0-23.3-2.6s-12.6-6.4-17.5-11.4-8.8-10.9-11.6-17.7c-2.9-6.8-4.8-14-5.7-21.7-.8-5.8-.8-11.6-.2-17.5s2-11.5,4.1-17c3.4-8.6,7.2-11.6,13.4-16.5,6.3-4.9,13-8,20.3-9.3s20.8-1.5,28.4,.8c7.5,2.3,14.2,3.4,20.3,9.2,5.3,5.1,10.6,10.3,13.3,17.3,2.8,7,4.4,14.6,4.7,22.9Z"/><path class="cls-2" d="M112.14,71.87c1,1.3,1.4,2.8,1.2,4.4-.2,1.6-1,3-2.3,4-.9,.7-1.9,1-3.1,1.1-1.5,1.3-19.7,19.3-21.2,20.5-1.7,1.1,.4-.3-1.9,1.3-2.3,1.6-4.6,2.8-6.7,3.9-2.2,1.1-4.5,1.9-7,2.4-2.5,.6-4.8,.7-6.9,.3-3.5-.6-6.4-2.4-8.6-5.3-.7-.9-1.3-1.9-1.9-3.1-.7-1.5-.8-3-.2-4.6,.6-1.5,1.6-2.7,3.1-3.4,1.5-.7,3-.8,4.6-.2,1.5,.6,2.7,1.6,3.4,3.1,.5,1,1.1,1.6,1.8,1.7,1.9,.3,4.7-.5,8.4-2.6s20.1-18.4,23.7-21.5l-1.4-1.9c-1-1.3-1.4-2.8-1.2-4.4,.2-1.6,1-3,2.3-4,.6-.5,1.4-.8,2.1-1,.8-.2,1.5-.3,2.3-.2,.7,.1,1.5,.3,2.2,.7s1.3,.9,1.8,1.6c0,0,5.5,7.3,5.5,7.2Z"/><g><path class="cls-1" d="M41.64,50.97c-.6-2-1.6-3.6-3-4.9-.6-.5-1.2-.9-1.7-.9-.5-.1-1,0-1.4,.3s-.7,.7-1,1.2c-.2,.5-.3,1.1-.3,1.8-.1,1.3-.2,2.4-.5,3.5-.2,1.1-.5,2.2-.8,3.2s-.7,2-1.1,3.1c-.4,1-.8,2.1-1.3,3.2-.6,1.4-.8,2.5-.7,3.4,.1,.9,.4,1.5,.9,2s1.2,.7,2,.8c.8,.1,1.7,0,2.5-.3,.9-.3,1.7-.7,2.5-1.3,.8-.6,1.5-1.3,2-2.2,.6-.9,1.1-1.9,1.5-3s.6-2.2,.8-3.3c.1-1.1,.2-2.2,.1-3.4-.1-1.1-.3-2.2-.5-3.2Z"/><path class="cls-2" d="M50.84,51.57c-.2-2.2-.7-4.4-1.6-6.6-.8-1.8-1.8-3.3-2.8-4.4-1.4-1.2-2.9-2.3-4.5-3.1s-3.4-1.5-5.2-2.1c-1.8-.5-3.6-1.1-5.4-1.6-.9-.3-1.8-.4-2.6-.3-.8,.1-1.6,.3-2.2,.6-.6,.4-1.2,.9-1.6,1.5-.5,.6-.8,1.4-.9,2.2-.1,.5-.2,1-.1,1.5s.1,1.1,.1,1.6c.1,2.2,.2,4.1,.2,5.9,0,1.7-.2,3.5-.6,5.2-.4,1.8-1,3.5-1.8,5.2-.9,1.7-2,3.5-3.4,5.5-.5,.6-.9,1.3-1.4,2-.4,.5-.7,1-.9,1.5,0,0-2.8,3.3-4.1,5.2-.3,.4-.7,.8-1,1.3l-.9,1.5c-.2,.5-.4,1-.6,1.6-.1,.6-.2,1.1-.1,1.7,.1,1.2,.6,2.3,1.4,3.2,.9,.9,1.9,1.4,3,1.7,1.1,.3,2.3,.1,3.5-.4,1.2-.6,2.2-1.6,3-3.3,.4-.9,.8-1.7,1.2-2.6,1.1,.5,2.2,.9,3.3,1.2,1.9,.5,4,.9,6.1,1,1.5,.1,2.9-.1,4.2-.5s2.6-1,3.8-1.7,2.3-1.6,3.4-2.6c1-1,2-2,3-3.2,1.4-1.8,2.5-3.7,3.3-5.7,.8-2.1,1.4-4.1,1.8-6.3,.4-2.3,.6-4.5,.4-6.7Zm-8.8,6c-.2,1.1-.4,2.2-.8,3.3-.4,1.1-.9,2.1-1.5,3-.5,.9-1.2,1.6-2,2.2s-1.6,1-2.5,1.3c-.8,.3-1.7,.4-2.5,.3s-1.5-.3-2-.8-.8-1.1-.9-2,.1-2,.7-3.4c.5-1.1,.9-2.2,1.3-3.2,.4-1.1,.8-2.1,1.1-3.1s.6-2.1,.8-3.2c.3-1.1,.4-2.2,.5-3.5,0-.7,.1-1.3,.3-1.8,.3-.5,.6-.9,1-1.2s.9-.4,1.4-.3c.5,0,1.1,.4,1.7,.9,1.4,1.3,2.4,2.9,3,4.9,.2,1,.4,2.1,.5,3.2,.1,1.2,0,2.3-.1,3.4Z"/></g></g></svg>