<?xml version="1.0" encoding="utf-8"?>
<!-- Generator: Adobe Illustrator 26.3.1, SVG Export Plug-In . SVG Version: 6.00 Build 0)  -->
<svg version="1.1" id="Layer_1" xmlns="http://www.w3.org/2000/svg" xmlns:xlink="http://www.w3.org/1999/xlink" x="0px" y="0px"
	 viewBox="0 0 505.4 97.6" style="enable-background:new 0 0 505.4 97.6;" xml:space="preserve">
<style type="text/css">
	.st0{fill:none;stroke:#FF6300;stroke-miterlimit:10;}
</style>
<path class="st0" d="M10.3,5.8h49.5c4.1,0,7.6,0.2,10.4,0.5c2.8,0.4,5.1,0.9,7,1.6c1.8,0.7,3.2,1.6,4.2,2.7c1,1.1,1.7,2.3,2.2,3.7
	c0.5,1.4,0.7,3,0.8,4.8s0.1,3.7,0.1,5.9c0,2.2-0.1,4.3-0.2,6.2c-0.1,1.9-0.4,3.6-1,5.1s-1.4,2.9-2.7,4c-1.2,1.2-3,2.1-5.2,2.9
	s-5.1,1.4-8.6,1.8c-3.5,0.4-7.7,0.6-12.7,0.6H18.5v26.1h-8.2C10.3,71.7,10.3,5.8,10.3,5.8z M18.5,38.8h35.7c3.7,0,6.8-0.1,9.3-0.2
	c2.5-0.1,4.6-0.4,6.2-0.7s2.9-0.8,3.8-1.5c0.9-0.6,1.5-1.5,2-2.5c0.4-1,0.7-2.3,0.7-3.7c0.1-1.4,0.1-3.2,0.1-5.2
	c0-1.9,0-3.5-0.1-4.8s-0.3-2.5-0.7-3.4c-0.4-0.9-1.1-1.6-2-2.2c-0.9-0.5-2.1-1-3.8-1.3s-3.7-0.5-6.2-0.6c-2.5-0.1-5.6-0.1-9.3-0.1
	H18.5V38.8z M135.4,38.4c0-2.1-0.2-3.8-0.5-5.1c-0.3-1.3-1-2.4-2.1-3.3s-2.8-1.4-5-1.7s-5.2-0.5-9-0.5c-3.7,0-6.7,0.3-9,1
	s-4.1,1.6-5.5,2.7c-1.3,1.2-2.2,2.6-2.7,4.2s-0.7,3.5-0.7,5.5v30.6h-8.1V22.3h8.2v7.9c0.3-0.9,0.8-1.9,1.6-2.9s1.9-2.1,3.5-3
	s3.6-1.7,6.1-2.3c2.5-0.6,5.6-0.9,9.4-0.9c4.3,0,7.8,0.4,10.5,1.1c2.7,0.8,4.8,1.9,6.3,3.4s2.5,3.3,3.1,5.5c0.5,2.2,0.8,4.7,0.8,7.5
	h-6.9V38.4z M146.4,46.5c0-5,0.5-9.2,1.6-12.5s2.8-5.9,5.2-7.8s5.5-3.3,9.4-4.1c3.8-0.8,8.5-1.2,14-1.2s10.2,0.4,14,1.2
	s7,2.1,9.4,4.1c2.4,1.9,4.2,4.5,5.2,7.8s1.6,7.5,1.6,12.5c0,5.1-0.5,9.4-1.6,12.7c-1.1,3.4-2.8,6.1-5.2,8.1s-5.5,3.4-9.4,4.2
	c-3.8,0.8-8.5,1.2-14,1.2s-10.2-0.4-14-1.2c-3.8-0.8-7-2.2-9.4-4.2s-4.2-4.7-5.2-8.1C146.9,55.9,146.4,51.6,146.4,46.5z M154.6,46.5
	c0,2.7,0.1,5.1,0.3,7.1s0.6,3.7,1.1,5.2c0.6,1.4,1.3,2.6,2.3,3.5s2.3,1.6,4,2.2c1.6,0.5,3.6,0.9,6,1.1c2.3,0.2,5.1,0.3,8.3,0.3
	c2.8,0,5.2-0.1,7.4-0.2s4.1-0.4,5.7-0.9s3-1.1,4.1-1.9s2.1-2,2.8-3.4s1.2-3.2,1.5-5.3s0.5-4.7,0.5-7.6s-0.2-5.4-0.5-7.5
	s-0.8-3.8-1.5-5.2s-1.6-2.5-2.8-3.3c-1.1-0.8-2.5-1.4-4.1-1.8s-3.5-0.7-5.7-0.8s-4.6-0.2-7.4-0.2s-5.2,0.1-7.4,0.2s-4.1,0.4-5.7,0.8
	s-3,1-4.1,1.8s-2.1,1.9-2.8,3.3s-1.2,3.1-1.5,5.2C154.8,41.1,154.6,43.6,154.6,46.5z M231.6,74.6c0,2.1-0.1,4-0.4,5.7
	s-0.9,3.1-2,4.3c-1,1.2-2.5,2.1-4.6,2.8c-2,0.6-4.7,1-8.2,1v-6.9c1.4,0,2.5-0.1,3.4-0.3c0.9-0.2,1.6-0.6,2.1-1.1s0.9-1.2,1.1-2.1
	s0.3-2,0.3-3.4V22.3h8.2v52.3H231.6z M231.6,14.1h-8.2V5.9h8.2V14.1z M274.3,72.8c-5.5,0-10.2-0.4-14-1.1c-3.8-0.8-7-2.1-9.4-3.9
	s-4.2-4.4-5.2-7.5c-1.1-3.1-1.6-7-1.6-11.8c0-5.4,0.5-9.9,1.6-13.4s2.8-6.4,5.2-8.4s5.5-3.6,9.4-4.4c3.8-0.8,8.5-1.2,14-1.2
	c3.9,0,7.3,0.3,10.2,0.9s5.3,1.4,7.4,2.5c2,1.1,3.7,2.4,5,4c1.3,1.5,2.3,3.2,3,4.9c0.7,1.7,1.2,3.7,1.5,6s0.4,4.7,0.4,7.3l-0.7,2.8
	h-48.8c0,3.7,0.4,6.7,1.1,9.1s2,4.1,3.7,5.2s4,1.8,6.8,2.1c2.8,0.3,6.3,0.4,10.4,0.4c3.8,0,6.9-0.1,9.4-0.3c2.5-0.2,4.4-0.6,5.9-1.2
	s2.5-1.4,3.1-2.4s0.9-2.3,0.9-4h8.2c0,2.7-0.5,4.9-1.4,6.8s-2.5,3.4-4.6,4.6s-5,2-8.5,2.5C283.7,72.5,279.4,72.8,274.3,72.8z
	 M274.3,27.8c-2.8,0-5.2,0.1-7.4,0.2c-2.2,0.1-4.1,0.4-5.7,0.8s-3,0.9-4.1,1.7c-1.1,0.7-2.1,1.6-2.8,2.6c-0.7,1-1.2,2.4-1.5,4.2
	c-0.3,1.8-0.5,3.9-0.5,6.5h41.2c0-3.4-0.4-6-1.1-7.9s-1.8-3.5-3.4-4.7c-1.6-1.2-3.5-2.1-6-2.5C280.6,28.1,277.7,27.8,274.3,27.8z
	 M311.4,47c0-3.4,0.2-6.4,0.5-9s1-4.9,1.8-6.8c0.9-1.9,2-3.5,3.5-4.8s3.3-2.3,5.6-3.1c2.2-0.8,4.9-1.4,8-1.7
	c3.1-0.3,6.7-0.5,10.8-0.5c5.5,0,10,0.3,13.6,1s6.4,1.7,8.4,3.1c2.1,1.4,3.5,3.2,4.3,5.3c0.8,2.1,1.2,4.7,1.2,7.6h-8.2
	c0-1.1,0-2-0.1-3c-0.1-0.9-0.3-1.7-0.6-2.5c-0.3-0.8-0.9-1.4-1.7-2s-1.9-1.1-3.3-1.5s-3.2-0.7-5.4-0.9s-4.9-0.3-8.1-0.3
	c-3.7,0-6.8,0.1-9.3,0.4s-4.6,0.7-6.2,1.3c-1.6,0.6-2.9,1.4-3.8,2.3c-0.9,1-1.5,2.2-1.9,3.6s-0.6,3.1-0.7,5s-0.1,4.1-0.1,6.6
	c0,2.4,0,4.6,0.1,6.5s0.3,3.5,0.7,4.9c0.4,1.4,1,2.6,1.9,3.5c0.9,1,2.2,1.7,3.8,2.3c1.6,0.6,3.7,1,6.2,1.3s5.6,0.4,9.3,0.4
	c3.2,0,5.9-0.1,8.1-0.3c2.2-0.2,4-0.5,5.4-1c1.4-0.4,2.5-0.9,3.3-1.5s1.3-1.3,1.7-2.1c0.4-0.8,0.6-1.7,0.6-2.6
	c0.1-0.9,0.1-2,0.1-3.1h8.2c0,3-0.4,5.6-1.2,7.8c-0.8,2.2-2.2,4-4.3,5.4c-2.1,1.4-4.9,2.5-8.4,3.2c-3.6,0.7-8.1,1-13.6,1
	c-4.1,0-7.7-0.2-10.8-0.5c-3.1-0.3-5.8-0.9-8-1.7s-4.1-1.8-5.6-3.1s-2.6-2.9-3.5-4.8s-1.5-4.2-1.8-6.7S311.4,50.3,311.4,47z
	 M428.3,49.8c0,4.2-0.3,7.7-1,10.5s-1.8,5.1-3.5,6.8c-1.6,1.7-3.7,2.9-6.4,3.6c-2.6,0.7-5.9,1.1-9.8,1.1c-3.8,0-6.9-0.3-9.5-0.9
	c-2.5-0.6-4.6-1.5-6.2-2.9s-2.7-3.2-3.4-5.5s-1-5.1-1-8.6V29.1h-10.2v-6.8h10.2V8.9h8.2v13.4h31.1v6.9h-31.1V54
	c0,2.7,0.2,4.9,0.6,6.3c0.4,1.5,1.1,2.6,2,3.3c0.9,0.7,2.1,1.1,3.6,1.2s3.3,0.2,5.5,0.2c1.7,0,3.3,0,4.6-0.1
	c1.4-0.1,2.5-0.2,3.6-0.5c1-0.3,1.9-0.8,2.6-1.4s1.3-1.5,1.7-2.6c0.4-1.1,0.8-2.5,1-4.2s0.3-3.8,0.3-6.3L428.3,49.8L428.3,49.8z
	 M457.9,49.1c-3-0.1-5.5-0.4-7.6-0.7c-2.1-0.4-3.9-0.9-5.3-1.5s-2.5-1.5-3.4-2.6c-0.8-1.1-1.4-2.5-1.8-4.1s-0.5-3.4-0.5-5.3
	c0-2.6,0.5-4.7,1.6-6.5s2.8-3.2,5.2-4.3s5.5-1.9,9.4-2.4c3.8-0.5,8.5-0.7,14-0.7c5.4,0,9.9,0.3,13.5,0.9c3.5,0.6,6.3,1.5,8.4,2.6
	c2.1,1.2,3.5,2.7,4.4,4.5c0.8,1.8,1.2,4,1.2,6.4h-8.2c0-1.5-0.3-2.8-0.9-3.8c-0.6-1-1.6-1.7-3.1-2.3s-3.4-0.9-5.9-1.2
	c-2.5-0.2-5.6-0.3-9.4-0.3c-4.1,0-7.6,0.1-10.4,0.2s-5.1,0.4-6.8,0.9s-3,1.2-3.7,2.1s-1.1,2.2-1.1,3.9c0,1,0.1,1.9,0.2,2.9
	s0.4,1.7,0.9,2.3c0.5,0.6,1.1,1.1,2,1.4s2.1,0.6,3.6,0.7c1.5,0.2,3.4,0.2,5.7,0.3c2.3,0,5,0,8.2,0c3.9,0,7.3,0.1,10.2,0.3
	c2.9,0.2,5.5,0.5,7.6,0.9s3.9,1.1,5.3,2c1.4,0.9,2.5,1.9,3.4,2.9c0.8,1,1.4,2.3,1.8,3.7s0.5,3.1,0.5,4.9s-0.2,3.5-0.5,5
	s-0.9,2.8-1.8,3.9s-2,2.1-3.5,2.9s-3.3,1.5-5.6,2s-4.9,0.9-8,1.1s-6.7,0.4-10.8,0.4c-5.2,0-9.5-0.3-13-0.8s-6.3-1.3-8.5-2.5
	s-3.7-2.6-4.6-4.4s-1.4-4-1.4-6.6h8.2c0,1.7,0.3,3.1,0.9,4.2s1.6,1.9,3.1,2.5s3.4,1,5.9,1.2s5.6,0.3,9.4,0.3c3.4,0,6.4-0.1,8.8-0.2
	c2.4-0.2,4.4-0.4,6.1-0.8s2.9-0.8,3.9-1.2s1.7-1.1,2.1-1.8c0.5-0.7,0.8-1.5,0.9-2.3s0.2-1.8,0.2-2.8c0-0.9-0.1-1.8-0.2-2.5
	s-0.4-1.5-0.9-2.2s-1.1-1.3-2-1.7c-0.9-0.4-2.1-0.7-3.6-0.9c-1.5-0.2-3.4-0.4-5.7-0.5s-5-0.2-8.2-0.2
	C464.3,49.3,460.9,49.2,457.9,49.1z"/>
</svg>
