<?xml version="1.0" encoding="UTF-8"?><svg id="Layer_1" xmlns="http://www.w3.org/2000/svg" viewBox="0 0 408.68 205.1"><path d="M0,100.95c2.02-6.25,6.74-7.76,12.75-7.75,119.48,.06,238.95,.04,358.43,.04h5.51c-1.44-1.57-2.33-2.62-3.3-3.59-23.78-23.82-47.57-47.63-71.36-71.44-.85-.85-1.74-1.65-2.51-2.57-3.5-4.14-3.46-9.36,.06-12.95,3.49-3.56,8.72-3.59,12.9-.04,1.01,.86,1.96,1.8,2.9,2.74,29.45,29.43,58.91,58.87,88.35,88.31,6.58,6.58,6.6,11.05,.08,17.57-29.91,29.91-59.83,59.83-89.75,89.73-4.71,4.71-9.57,5.38-13.74,1.95-3.86-3.18-4.57-8.43-1.55-12.42,1.19-1.58,2.62-3,4.03-4.41,24.45-24.46,48.92-48.9,73.54-73.5-1.57-1.17-3.19-.66-4.66-.66-119.61-.03-239.22-.04-358.83,.03-5.78,0-10.34-1.47-12.84-7.06v-3.99h-.01Z"/></svg>