<?xml version="1.0" encoding="UTF-8"?><svg id="Layer_1" xmlns="http://www.w3.org/2000/svg" viewBox="0 0 409.6 409.6"><defs><style>.cls-1{fill:#fefefe;}</style></defs><path class="cls-1" d="M0,203.6V.07c135.31,0,270.62,.01,405.93-.07,2.99,0,3.67,.67,3.67,3.67-.09,134.09-.09,268.18,0,402.27,0,2.99-.67,3.67-3.67,3.67-135.31-.09-270.62-.07-405.93-.07,0-67.31,0-134.62,0-201.93,.75-.17,1.37,.16,1.72,.72,3.07,4.84,7.89,5.35,12.97,5.35,17.83-.02,35.65,0,53.48,0,99.91,0,199.82,0,299.73,0,1.99,0,4-.14,5.98,.2,2.16,.36,2.7,1.48,1.42,3.33-.91,1.32-2.11,2.39-3.24,3.52-22.2,22.2-44.4,44.4-66.6,66.59-2.07,2.07-4.14,4.15-5.68,6.67-2.43,4-2,7.69,1.18,10.41,3.1,2.66,7.18,2.62,10.58-.13,1.03-.84,1.94-1.82,2.88-2.76,29.16-29.16,58.33-58.31,87.49-87.47,.38-.38-.09,.1,.28-.28,6.98-7.02,7.02-10.02,.13-16.92-29.44-29.45-58.88-58.88-88.33-88.32-1.03-1.03-2.04-2.11-3.24-2.96-3.19-2.24-7.05-2-9.89,.6-2.78,2.55-3.43,6.55-1.47,9.8,1.59,2.63,3.72,4.84,5.89,7.01,22.3,22.28,44.61,44.56,66.86,66.9,1.59,1.6,4.65,3.1,3.46,5.65-1,2.14-4.09,1.23-6.28,1.23-117.34,.03-234.68,.03-352.02,.03-2.13,0-4.26-.1-6.38,.13-3.72,.4-7.02,1.52-8.87,5.18-.4,.79-.86,1.71-2.06,1.54Z"/><path d="M0,203.6c2.02-6.25,6.74-7.76,12.75-7.75,119.48,.06,238.95,.04,358.43,.04h5.51c-1.44-1.57-2.33-2.62-3.3-3.59-23.78-23.82-47.57-47.63-71.36-71.44-.85-.85-1.74-1.65-2.51-2.57-3.5-4.14-3.46-9.36,.06-12.95,3.49-3.56,8.72-3.59,12.9-.04,1.01,.86,1.96,1.8,2.9,2.74,29.45,29.43,58.91,58.87,88.35,88.31,6.58,6.58,6.6,11.05,.08,17.57-29.91,29.91-59.83,59.83-89.75,89.73-4.71,4.71-9.57,5.38-13.74,1.95-3.86-3.18-4.57-8.43-1.55-12.42,1.19-1.58,2.62-3,4.03-4.41,24.45-24.46,48.92-48.9,73.54-73.5-1.57-1.17-3.19-.66-4.66-.66-119.61-.03-239.22-.04-358.83,.03-5.78,0-10.34-1.47-12.84-7.06v-3.99Z"/></svg>