<?xml version="1.0" encoding="UTF-8"?><svg id="Layer_1" xmlns="http://www.w3.org/2000/svg" viewBox="0 0 353.19 197.22"><defs><style>.cls-1{fill:#fff;}</style></defs><rect width="353.19" height="197.22"/><g><path class="cls-1" d="M87.91,156.81c2.47,0,4.59,.1,6.35,.31s3.25,.51,4.46,.91,2.18,.9,2.89,1.5,1.27,1.27,1.66,2.04c.39,.76,.64,1.61,.76,2.55s.18,1.96,.18,3.06-.1,2.11-.29,3.07c-.2,.96-.54,1.83-1.04,2.63s-1.18,1.5-2.04,2.12-1.95,1.15-3.28,1.59-2.93,.77-4.79,.99-4.05,.34-6.55,.34h-6c-2.25,0-4.22-.09-5.91-.26s-3.14-.43-4.36-.79-2.23-.8-3.02-1.34-1.43-1.17-1.91-1.9-.81-1.55-1-2.48-.28-1.96-.28-3.08h4.5c0,1.43,.2,2.55,.61,3.36s1.08,1.42,2.02,1.82c.94,.4,2.17,.66,3.69,.76,1.52,.1,3.41,.15,5.66,.15h6c2.62,0,4.8-.13,6.54-.38,1.73-.25,3.12-.65,4.15-1.2s1.76-1.27,2.18-2.16c.42-.89,.63-1.97,.63-3.25s-.14-2.34-.43-3.19-.86-1.53-1.71-2.03-2.05-.86-3.6-1.07c-1.55-.21-3.57-.32-6.07-.32h-6.19c-2.75,0-5.11-.1-7.07-.3s-3.61-.5-4.93-.88-2.39-.86-3.19-1.43-1.4-1.22-1.82-1.96-.68-1.55-.81-2.45-.19-1.87-.19-2.92,.1-2.11,.29-3.05,.56-1.79,1.09-2.54,1.26-1.43,2.18-2.03,2.11-1.09,3.55-1.49,3.18-.7,5.21-.9,4.42-.3,7.17-.3h4.5c2.25,0,4.22,.08,5.91,.25s3.14,.42,4.36,.77,2.23,.79,3.04,1.31,1.45,1.15,1.92,1.88,.81,1.55,1,2.47,.28,1.95,.28,3.07h-4.5c0-1.41-.2-2.51-.61-3.3s-1.08-1.39-2.02-1.79-2.17-.65-3.7-.75-3.42-.15-5.67-.15h-4.5c-3,0-5.47,.11-7.41,.32s-3.47,.57-4.59,1.07-1.91,1.17-2.34,2.02-.66,1.9-.66,3.16c0,.78,.05,1.48,.16,2.09s.33,1.14,.67,1.61,.81,.85,1.42,1.16,1.41,.57,2.41,.77,2.22,.35,3.67,.43,3.17,.13,5.17,.13h6.19v-.02Z"/><path class="cls-1" d="M145.47,141.06h6.75l-25.5,17.62,26.25,18.38h-6.75l-23.98-16.5h-6.02v16.5h-4.5v-36h4.5v15.75h6.01l23.24-15.75h0Z"/><path class="cls-1" d="M158.97,141.06h4.5v36h-4.5v-36Z"/><path class="cls-1" d="M172.47,177.06v-36h4.5v32.25h28.5v3.75h-33Z"/><path class="cls-1" d="M211.47,177.06v-36h4.5v32.25h28.5v3.75h-33Z"/><path class="cls-1" d="M273.16,156.81c2.47,0,4.59,.1,6.35,.31s3.25,.51,4.46,.91,2.18,.9,2.89,1.5,1.27,1.27,1.66,2.04c.39,.76,.64,1.61,.76,2.55s.18,1.96,.18,3.06-.1,2.11-.29,3.07c-.2,.96-.54,1.83-1.04,2.63s-1.18,1.5-2.04,2.12c-.86,.62-1.95,1.15-3.28,1.59s-2.93,.77-4.79,.99-4.05,.34-6.55,.34h-6c-2.25,0-4.22-.09-5.91-.26s-3.14-.43-4.36-.79-2.23-.8-3.02-1.34-1.43-1.17-1.91-1.9-.81-1.55-1-2.48-.28-1.96-.28-3.08h4.5c0,1.43,.2,2.55,.61,3.36s1.08,1.42,2.02,1.82,2.17,.66,3.69,.76,3.41,.15,5.66,.15h6c2.62,0,4.8-.13,6.54-.38,1.73-.25,3.12-.65,4.15-1.2s1.76-1.27,2.18-2.16c.42-.89,.63-1.97,.63-3.25s-.14-2.34-.43-3.19-.86-1.53-1.71-2.03-2.05-.86-3.6-1.07c-1.55-.21-3.57-.32-6.07-.32h-6.19c-2.75,0-5.11-.1-7.07-.3s-3.61-.5-4.93-.88-2.39-.86-3.19-1.43-1.4-1.22-1.82-1.96-.68-1.55-.81-2.45-.19-1.87-.19-2.92,.1-2.11,.29-3.05,.56-1.79,1.09-2.54,1.26-1.43,2.18-2.03,2.11-1.09,3.55-1.49,3.18-.7,5.21-.9,4.42-.3,7.17-.3h4.5c2.25,0,4.22,.08,5.91,.25s3.14,.42,4.36,.77,2.23,.79,3.04,1.31,1.45,1.15,1.92,1.88,.81,1.55,1,2.47,.28,1.95,.28,3.07h-4.5c0-1.41-.2-2.51-.61-3.3s-1.08-1.39-2.02-1.79-2.17-.65-3.7-.75-3.42-.15-5.67-.15h-4.5c-3,0-5.47,.11-7.41,.32s-3.47,.57-4.59,1.07-1.91,1.17-2.34,2.02-.66,1.9-.66,3.16c0,.78,.05,1.48,.16,2.09s.33,1.14,.67,1.61,.81,.85,1.42,1.16c.61,.31,1.41,.57,2.41,.77s2.22,.35,3.67,.43,3.17,.13,5.17,.13h6.19v-.02Z"/></g></svg>